<svg width="196" height="75" viewBox="0 0 196 75" fill="none" xmlns="http://www.w3.org/2000/svg">
<g filter="url(#filter0_i)">
<path fill-rule="evenodd" clip-rule="evenodd" d="M7.02906 3.76075C9.002 2.55625 11.7271 1.71139 14.3307 1.50017C14.6663 1.47163 23.7499 1.4545 34.523 1.46021C52.8638 1.47163 54.1482 1.47734 54.7731 1.56867C59.1992 2.23657 62.1383 4.1946 63.8336 7.61971C64.6262 9.22381 65.0833 11.0562 65.2453 13.2826C65.2916 13.8877 65.3032 21.0633 65.2916 37.5153L65.2742 60.8917L65.1412 61.3484C64.6725 62.9925 63.4806 64.1056 61.6871 64.568C61.4325 64.6365 61.0333 64.705 60.8076 64.7278L60.3853 64.7621V67.2054C60.3853 70.288 60.3101 70.8588 59.7778 71.9663C59.0025 73.5704 57.6602 74.3981 55.6988 74.4894C53.2572 74.5979 51.5446 73.4961 50.7983 71.3383C50.5206 70.5277 50.4916 70.1738 50.4916 67.3652V64.745H33.1922H15.8928V67.3652C15.8928 70.1738 15.8639 70.5277 15.5862 71.3383C15.0944 72.754 14.0935 73.8044 12.8437 74.2154C11.8659 74.5351 10.4774 74.5865 9.50536 74.3353C8.17464 73.9985 7.2142 73.2107 6.6067 71.9663C6.07441 70.8874 5.9992 70.2822 5.9992 67.1939V64.745H5.66362C4.98669 64.745 4.18247 64.5395 3.48239 64.1855C3.19311 64.0371 2.92696 63.8316 2.55667 63.4606C2.10538 63.021 1.98967 62.8612 1.72931 62.3474C1.56152 62.0163 1.35324 61.4911 1.26645 61.1771L1.11024 60.6063V37.0301C1.11024 17.7352 1.12181 13.3511 1.18545 12.883C1.7351 8.83563 3.66754 5.81011 7.02906 3.76075ZM50.4685 9.81179C50.3875 9.32656 50.0751 8.95551 49.6296 8.80709C49.3634 8.72146 16.9863 8.72717 16.7318 8.8128C16.1358 9.0183 15.7829 9.67478 15.9507 10.2799C16.049 10.6338 16.4135 11.0049 16.7781 11.1133C17.0384 11.1875 19.0229 11.199 33.1922 11.199C47.3615 11.199 49.3461 11.1875 49.6064 11.1133C50.1561 10.9535 50.5553 10.3484 50.4685 9.81179ZM60.0266 19.0767C59.5058 17.5925 58.4413 16.6221 56.8907 16.2053L56.422 16.0798L33.3947 16.074C20.5851 16.0683 10.2112 16.0855 10.0203 16.114C8.8805 16.2796 7.87378 16.8219 7.17949 17.6496C6.83813 18.0549 6.38106 18.9797 6.23641 19.562C5.9992 20.5096 5.99341 20.698 6.01655 28.5529C6.03391 35.5744 6.0397 36.1452 6.13805 36.5391C6.41577 37.6865 6.82656 38.4629 7.53242 39.1479C8.09364 39.7016 8.74743 40.0499 9.59215 40.2611L10.136 40.3981H33.1922H56.2485L56.7923 40.2611C57.637 40.0499 58.2908 39.7016 58.852 39.1479C59.5753 38.4401 60.0034 37.6295 60.2522 36.482C60.3506 36.0311 60.3563 35.5059 60.3563 28.1818C60.3563 20.8833 60.3648 20.1287 60.152 19.4427C60.1167 19.3287 60.0752 19.2167 60.0266 19.0767ZM15.6498 56.5247C16.5235 53.8474 14.9324 50.9988 12.1842 50.3081C10.1476 49.7943 7.96635 50.6278 6.83813 52.346C5.60576 54.2299 5.80248 56.656 7.31835 58.2943C8.20357 59.2534 9.33757 59.7843 10.6857 59.8699C12.89 60.0183 14.9729 58.614 15.6498 56.5247ZM58.9157 51.5868C58.1288 50.8105 57.1452 50.3366 56.0286 50.1882C54.4722 49.9884 52.9332 50.5421 51.8108 51.7181C50.59 52.9968 50.1792 54.8235 50.7346 56.5247C51.4116 58.614 53.4944 60.0183 55.6988 59.8699C58.1577 59.71 60.0266 57.9632 60.3274 55.5485C60.501 54.1328 59.9571 52.6086 58.9157 51.5868ZM79.548 30.6008C80.4308 31.4054 81.8371 32.0851 83.7667 32.6398C85.3058 33.0851 86.3683 33.5383 86.9542 33.9992C87.5402 34.4523 87.8331 35.0968 87.8331 35.9328C87.8331 36.7687 87.5167 37.4289 86.8839 37.9133C86.2511 38.3976 85.341 38.6398 84.1535 38.6398C82.88 38.6398 81.8605 38.3429 81.0949 37.7492C80.3371 37.1476 79.9581 36.3312 79.9581 35.3H77.6964C77.6964 36.2922 77.9699 37.1789 78.5167 37.9601C79.0714 38.7414 79.8566 39.3586 80.8722 39.8117C81.8878 40.257 82.9816 40.4797 84.1535 40.4797C85.9581 40.4797 87.3996 40.0656 88.4777 39.2375C89.5558 38.4015 90.0949 37.2922 90.0949 35.9093C90.0949 35.0422 89.8996 34.2883 89.5089 33.6476C89.1261 33.007 88.5324 32.4484 87.7277 31.9718C86.9308 31.4875 85.8214 31.0461 84.3996 30.6476C82.9855 30.2492 81.9816 29.8117 81.3878 29.3351C80.8019 28.8508 80.5089 28.2609 80.5089 27.5656C80.5089 26.6984 80.8175 26.0226 81.4347 25.5383C82.0597 25.0461 82.9269 24.8 84.0363 24.8C85.2316 24.8 86.1574 25.0968 86.8136 25.6906C87.4699 26.2765 87.798 27.0851 87.798 28.1164H90.0597C90.0597 27.1711 89.8058 26.3 89.298 25.5031C88.798 24.7062 88.0871 24.0812 87.1652 23.6281C86.2511 23.175 85.2081 22.9484 84.0363 22.9484C82.3175 22.9484 80.9191 23.3898 79.841 24.2726C78.7706 25.1476 78.2355 26.257 78.2355 27.6008C78.2355 28.7883 78.673 29.7883 79.548 30.6008ZM99.7628 38.007C99.1847 38.4758 98.5089 38.7101 97.7355 38.7101C96.6183 38.7101 95.7589 38.3156 95.1574 37.5265C94.5558 36.7375 94.255 35.6125 94.255 34.1515V33.7414C94.255 32.2414 94.5558 31.0968 95.1574 30.3078C95.7667 29.5109 96.6222 29.1125 97.7238 29.1125C98.5441 29.1125 99.2316 29.3781 99.7863 29.9093C100.349 30.4328 100.661 31.1047 100.724 31.925H102.775C102.712 30.5656 102.208 29.4601 101.263 28.6086C100.325 27.757 99.1456 27.3312 97.7238 27.3312C96.5675 27.3312 95.5636 27.5968 94.7121 28.1281C93.8683 28.6593 93.2199 29.4054 92.7667 30.3664C92.3136 31.3273 92.0871 32.425 92.0871 33.6593V34.0226C92.0871 36.0226 92.5949 37.6008 93.6105 38.757C94.6339 39.9054 96.0089 40.4797 97.7355 40.4797C98.5949 40.4797 99.4074 40.2843 100.173 39.8937C100.946 39.5031 101.564 38.9797 102.025 38.3234C102.485 37.6672 102.735 36.9758 102.775 36.2492H100.724C100.661 36.9523 100.341 37.5383 99.7628 38.007ZM111.13 27.3312C109.591 27.3312 108.341 27.9211 107.38 29.1008V22.2453H105.212V40.2453H107.38V31.2101C107.677 30.6008 108.091 30.1086 108.622 29.7336C109.153 29.3586 109.771 29.1711 110.474 29.1711C111.341 29.1711 111.978 29.3898 112.384 29.8273C112.798 30.2648 113.009 30.9406 113.017 31.8547V40.2453H115.185V31.8664C115.161 28.8429 113.81 27.3312 111.13 27.3312ZM118.583 30.4367C118.099 31.4289 117.857 32.5461 117.857 33.7883V33.9406C117.857 35.9093 118.388 37.4914 119.45 38.6867C120.521 39.882 121.915 40.4797 123.634 40.4797C124.775 40.4797 125.782 40.2062 126.657 39.6593C127.54 39.1125 128.216 38.3508 128.685 37.3742C129.161 36.3898 129.4 35.2804 129.4 34.0461V33.8937C129.4 31.9093 128.864 30.3195 127.794 29.1242C126.732 27.9289 125.337 27.3312 123.61 27.3312C122.493 27.3312 121.497 27.6008 120.622 28.1398C119.755 28.6789 119.075 29.4445 118.583 30.4367ZM121.009 37.4328C120.36 36.5812 120.036 35.4523 120.036 34.0461C120.036 32.4601 120.364 31.2414 121.021 30.3898C121.677 29.5383 122.54 29.1125 123.61 29.1125C124.704 29.1125 125.579 29.5461 126.235 30.4133C126.9 31.2726 127.232 32.3976 127.232 33.7883C127.232 35.3429 126.907 36.5539 126.259 37.4211C125.61 38.2804 124.735 38.7101 123.634 38.7101C122.54 38.7101 121.665 38.2843 121.009 37.4328ZM132.271 30.4367C131.786 31.4289 131.544 32.5461 131.544 33.7883V33.9406C131.544 35.9093 132.075 37.4914 133.138 38.6867C134.208 39.882 135.603 40.4797 137.321 40.4797C138.462 40.4797 139.47 40.2062 140.345 39.6593C141.228 39.1125 141.903 38.3508 142.372 37.3742C142.849 36.3898 143.087 35.2804 143.087 34.0461V33.8937C143.087 31.9093 142.552 30.3195 141.482 29.1242C140.419 27.9289 139.025 27.3312 137.298 27.3312C136.181 27.3312 135.185 27.6008 134.31 28.1398C133.443 28.6789 132.763 29.4445 132.271 30.4367ZM134.696 37.4328C134.048 36.5812 133.724 35.4523 133.724 34.0461C133.724 32.4601 134.052 31.2414 134.708 30.3898C135.364 29.5383 136.228 29.1125 137.298 29.1125C138.392 29.1125 139.267 29.5461 139.923 30.4133C140.587 31.2726 140.919 32.3976 140.919 33.7883C140.919 35.3429 140.595 36.5539 139.946 37.4211C139.298 38.2804 138.423 38.7101 137.321 38.7101C136.228 38.7101 135.353 38.2843 134.696 37.4328ZM145.993 40.2453H148.161V22.2453H145.993V40.2453ZM157.935 23.1828V40.2453H163.853C165.665 40.2453 167.068 39.8078 168.06 38.9328C169.052 38.0578 169.548 36.8547 169.548 35.3234C169.548 34.3234 169.278 33.464 168.739 32.7453C168.208 32.0187 167.482 31.5265 166.56 31.2687C167.341 30.9328 167.958 30.4601 168.411 29.8508C168.864 29.2336 169.091 28.5265 169.091 27.7297C169.091 26.2297 168.622 25.0968 167.685 24.3312C166.755 23.5656 165.364 23.1828 163.513 23.1828H157.935ZM160.185 38.4054V32.2648H163.935C166.169 32.2648 167.286 33.2922 167.286 35.3468C167.286 36.3 166.982 37.05 166.372 37.5968C165.771 38.1359 164.946 38.4054 163.9 38.4054H160.185ZM163.583 30.4601H160.185V25.0343H163.513C164.63 25.0343 165.462 25.2492 166.009 25.6789C166.556 26.1008 166.829 26.7804 166.829 27.7179C166.829 28.5617 166.532 29.2297 165.939 29.7218C165.353 30.214 164.568 30.4601 163.583 30.4601ZM176.661 40.4797C178.294 40.4797 179.532 39.9836 180.376 38.9914L180.423 40.2453H182.485V27.5656H180.318V36.7883C179.771 38.0226 178.669 38.6398 177.013 38.6398C175.45 38.6398 174.669 37.6789 174.669 35.757V27.5656H172.501V35.8156C172.509 37.3547 172.864 38.5187 173.568 39.3078C174.278 40.089 175.31 40.4797 176.661 40.4797ZM192.505 35.5226C192.95 35.8429 193.173 36.2961 193.173 36.882C193.173 37.4367 192.923 37.882 192.423 38.2179C191.931 38.5461 191.275 38.7101 190.454 38.7101C189.564 38.7101 188.845 38.4992 188.298 38.0773C187.759 37.6476 187.47 37.0695 187.431 36.3429H185.263C185.263 37.0929 185.482 37.7922 185.919 38.4406C186.364 39.0812 186.978 39.5812 187.759 39.9406C188.54 40.3 189.439 40.4797 190.454 40.4797C191.9 40.4797 193.075 40.1398 193.982 39.4601C194.888 38.7726 195.341 37.8625 195.341 36.7297C195.341 36.05 195.177 35.4758 194.849 35.007C194.528 34.5304 194.032 34.1242 193.36 33.7883C192.689 33.4523 191.81 33.1633 190.724 32.9211C189.646 32.6789 188.9 32.425 188.485 32.1593C188.071 31.8937 187.864 31.4992 187.864 30.9758C187.864 30.4211 188.087 29.9718 188.532 29.6281C188.978 29.2843 189.595 29.1125 190.384 29.1125C191.15 29.1125 191.782 29.3273 192.282 29.757C192.79 30.1867 193.044 30.6984 193.044 31.2922H195.224C195.224 30.1359 194.775 29.1867 193.876 28.4445C192.985 27.7023 191.821 27.3312 190.384 27.3312C189.017 27.3312 187.892 27.6906 187.009 28.4093C186.134 29.1281 185.696 30.007 185.696 31.0461C185.696 31.6711 185.849 32.2101 186.153 32.6633C186.466 33.1164 186.943 33.507 187.583 33.8351C188.232 34.1633 189.103 34.4445 190.196 34.6789C191.298 34.9133 192.068 35.1945 192.505 35.5226Z" fill="black"/>
</g>
<path d="M14.3307 1.50017L14.3711 1.99854L14.3731 1.99837L14.3307 1.50017ZM7.02906 3.76075L7.28933 4.18767L7.2896 4.1875L7.02906 3.76075ZM34.523 1.46021L34.5233 0.96021L34.5232 0.96021L34.523 1.46021ZM54.7731 1.56867L54.8477 1.07426L54.8454 1.07393L54.7731 1.56867ZM63.8336 7.61971L64.2818 7.39821L64.2817 7.39792L63.8336 7.61971ZM65.2453 13.2826L64.7466 13.3189L64.7468 13.3207L65.2453 13.2826ZM65.2916 37.5153L65.7916 37.5157L65.7916 37.5156L65.2916 37.5153ZM65.2742 60.8917L65.7543 61.0316L65.7742 60.9633L65.7742 60.8921L65.2742 60.8917ZM65.1412 61.3484L64.6611 61.2085L64.6603 61.2113L65.1412 61.3484ZM61.6871 64.568L61.5622 64.0838L61.5571 64.0852L61.6871 64.568ZM60.8076 64.7278L60.848 65.2263L60.858 65.2253L60.8076 64.7278ZM60.3853 64.7621L60.3448 64.2637L59.8853 64.301V64.7621H60.3853ZM59.7778 71.9663L60.2279 72.1838L60.2284 72.1829L59.7778 71.9663ZM55.6988 74.4894L55.721 74.9889L55.7221 74.9889L55.6988 74.4894ZM50.7983 71.3383L50.3253 71.5004L50.3257 71.5018L50.7983 71.3383ZM50.4916 64.745H50.9916V64.245H50.4916V64.745ZM15.8928 64.745V64.245H15.3928V64.745H15.8928ZM15.5862 71.3383L16.0585 71.5024L16.0592 71.5004L15.5862 71.3383ZM12.8437 74.2154L12.9991 74.6907L13 74.6904L12.8437 74.2154ZM9.50536 74.3353L9.63046 73.8512L9.62804 73.8506L9.50536 74.3353ZM6.6067 71.9663L7.05602 71.7469L7.0551 71.745L6.6067 71.9663ZM5.9992 64.745H6.4992V64.245H5.9992V64.745ZM3.48239 64.1855L3.25415 64.6304L3.25681 64.6318L3.48239 64.1855ZM2.55667 63.4606L2.91063 63.1073L2.90554 63.1024L2.55667 63.4606ZM1.72931 62.3474L2.17531 62.1214L2.17531 62.1214L1.72931 62.3474ZM1.26645 61.1771L0.78418 61.3091L0.784523 61.3104L1.26645 61.1771ZM1.11024 60.6063H0.610235V60.6735L0.627967 60.7383L1.11024 60.6063ZM1.18545 12.883L1.68089 12.9503L1.6809 12.9503L1.18545 12.883ZM49.6296 8.80709L49.7876 8.3327L49.7827 8.33112L49.6296 8.80709ZM50.4685 9.81179L50.9621 9.73196L50.9617 9.72946L50.4685 9.81179ZM16.7318 8.8128L16.5724 8.33887L16.5688 8.34011L16.7318 8.8128ZM15.9507 10.2799L15.4689 10.4135L15.4689 10.4138L15.9507 10.2799ZM16.7781 11.1133L16.6354 11.5926L16.641 11.5942L16.7781 11.1133ZM49.6064 11.1133L49.7435 11.5942L49.746 11.5934L49.6064 11.1133ZM56.8907 16.2053L57.0204 15.7225L57.0201 15.7224L56.8907 16.2053ZM60.0266 19.0767L60.4988 18.9125L60.4984 18.9112L60.0266 19.0767ZM56.422 16.0798L56.5514 15.5968L56.4879 15.5798L56.4221 15.5798L56.422 16.0798ZM33.3947 16.074L33.3945 16.574L33.3946 16.574L33.3947 16.074ZM10.0203 16.114L10.0922 16.6088L10.0942 16.6085L10.0203 16.114ZM7.17949 17.6496L7.56192 17.9717L7.56257 17.9709L7.17949 17.6496ZM6.23641 19.562L6.72145 19.6834L6.72166 19.6825L6.23641 19.562ZM6.01655 28.5529L6.51655 28.5517L6.51655 28.5514L6.01655 28.5529ZM6.13805 36.5391L6.62403 36.4215L6.62316 36.418L6.13805 36.5391ZM7.53242 39.1479L7.8836 38.792L7.88064 38.7891L7.53242 39.1479ZM9.59215 40.2611L9.71429 39.7762L9.71344 39.776L9.59215 40.2611ZM10.136 40.3981L10.0139 40.8829L10.074 40.8981H10.136V40.3981ZM56.2485 40.3981V40.8981H56.3105L56.3706 40.8829L56.2485 40.3981ZM56.7923 40.2611L56.671 39.776L56.6702 39.7762L56.7923 40.2611ZM58.852 39.1479L58.5023 38.7906L58.5009 38.792L58.852 39.1479ZM60.2522 36.482L59.7637 36.3755L59.7635 36.3761L60.2522 36.482ZM60.152 19.4427L60.6296 19.2946L60.6296 19.2946L60.152 19.4427ZM12.1842 50.3081L12.0619 50.7929L12.0623 50.793L12.1842 50.3081ZM15.6498 56.5247L15.1745 56.3696L15.1742 56.3706L15.6498 56.5247ZM6.83813 52.346L6.42017 52.0716L6.41971 52.0723L6.83813 52.346ZM7.31835 58.2943L7.68576 57.9552L7.68535 57.9548L7.31835 58.2943ZM10.6857 59.8699L10.7192 59.371L10.7174 59.3709L10.6857 59.8699ZM56.0286 50.1882L56.0945 49.6926L56.0923 49.6923L56.0286 50.1882ZM58.9157 51.5868L58.5645 51.9427L58.5655 51.9437L58.9157 51.5868ZM51.8108 51.7181L52.1724 52.0634L52.1725 52.0633L51.8108 51.7181ZM50.7346 56.5247L51.2103 56.3706L51.2099 56.3695L50.7346 56.5247ZM55.6988 59.8699L55.6664 59.3709L55.6652 59.371L55.6988 59.8699ZM60.3274 55.5485L60.8236 55.6103L60.8237 55.6094L60.3274 55.5485ZM83.7667 32.6398L83.9057 32.1595L83.9049 32.1593L83.7667 32.6398ZM79.548 30.6008L79.2077 30.9672L79.2112 30.9703L79.548 30.6008ZM86.9542 33.9992L86.6451 34.3922L86.6484 34.3947L86.9542 33.9992ZM81.0949 37.7492L80.784 38.1408L80.7885 38.1443L81.0949 37.7492ZM79.9581 35.3H80.4581V34.8H79.9581V35.3ZM77.6964 35.3V34.8H77.1964V35.3H77.6964ZM78.5167 37.9601L78.1071 38.2469L78.109 38.2496L78.5167 37.9601ZM80.8722 39.8117L80.6685 40.2683L80.6714 40.2696L80.8722 39.8117ZM88.4777 39.2375L88.7823 39.634L88.7841 39.6326L88.4777 39.2375ZM89.5089 33.6476L89.0797 33.9041L89.082 33.9079L89.5089 33.6476ZM87.7277 31.9718L87.468 32.3991L87.4729 32.4021L87.7277 31.9718ZM84.3996 30.6476L84.2639 31.1289L84.2646 31.1291L84.3996 30.6476ZM81.3878 29.3351L81.0692 29.7205L81.0749 29.7251L81.3878 29.3351ZM81.4347 25.5383L81.7434 25.9316L81.7441 25.9311L81.4347 25.5383ZM86.8136 25.6906L86.4781 26.0614L86.4806 26.0636L86.8136 25.6906ZM87.798 28.1164H87.298V28.6164H87.798V28.1164ZM90.0597 28.1164V28.6164H90.5597V28.1164H90.0597ZM89.298 25.5031L88.8744 25.7688L88.8763 25.7718L89.298 25.5031ZM87.1652 23.6281L86.9431 24.0761L86.9446 24.0768L87.1652 23.6281ZM79.841 24.2726L80.1574 24.6597L80.1577 24.6595L79.841 24.2726ZM95.1574 30.3078L94.7602 30.0041L94.7597 30.0046L95.1574 30.3078ZM99.7863 29.9093L99.4404 30.2705L99.4457 30.2754L99.7863 29.9093ZM100.724 31.925L100.225 31.963L100.26 32.425H100.724V31.925ZM102.775 31.925V32.425H103.298L103.274 31.902L102.775 31.925ZM101.263 28.6086L100.927 28.9787L100.928 28.9801L101.263 28.6086ZM94.7121 28.1281L94.4474 27.7039L94.4456 27.705L94.7121 28.1281ZM93.6105 38.757L93.2348 39.087L93.2372 39.0897L93.6105 38.757ZM100.173 39.8937L99.9476 39.4474L99.9458 39.4483L100.173 39.8937ZM102.775 36.2492L103.274 36.276L103.302 35.7492H102.775V36.2492ZM100.724 36.2492V35.7492H100.266L100.226 36.2049L100.724 36.2492ZM107.38 29.1008H106.88V30.5063L107.768 29.4165L107.38 29.1008ZM107.38 22.2453H107.88V21.7453H107.38V22.2453ZM105.212 22.2453V21.7453H104.712V22.2453H105.212ZM105.212 40.2453H104.712V40.7453H105.212V40.2453ZM107.38 40.2453V40.7453H107.88V40.2453H107.38ZM107.38 31.2101L106.931 30.9911L106.88 31.0948V31.2101H107.38ZM112.384 29.8273L112.018 30.1676L112.021 30.171L112.384 29.8273ZM113.017 31.8547L113.517 31.8547L113.517 31.8504L113.017 31.8547ZM113.017 40.2453H112.517V40.7453H113.017V40.2453ZM115.185 40.2453V40.7453H115.685V40.2453H115.185ZM115.185 31.8664L115.685 31.8664L115.685 31.8625L115.185 31.8664ZM118.583 30.4367L118.135 30.2145L118.134 30.2173L118.583 30.4367ZM119.45 38.6867L119.077 39.0189L119.078 39.0202L119.45 38.6867ZM126.657 39.6593L126.394 39.2343L126.392 39.2353L126.657 39.6593ZM128.685 37.3742L128.235 37.1563L128.234 37.1578L128.685 37.3742ZM127.794 29.1242L127.42 29.4564L127.422 29.4577L127.794 29.1242ZM120.622 28.1398L120.36 27.7141L120.358 27.7152L120.622 28.1398ZM121.009 37.4328L120.611 37.7357L120.613 37.738L121.009 37.4328ZM126.235 30.4133L125.837 30.715L125.84 30.719L126.235 30.4133ZM126.259 37.4211L126.658 37.7222L126.659 37.7205L126.259 37.4211ZM132.271 30.4367L131.823 30.2145L131.821 30.2173L132.271 30.4367ZM133.138 38.6867L132.764 39.0189L132.765 39.0202L133.138 38.6867ZM140.345 39.6593L140.082 39.2343L140.08 39.2353L140.345 39.6593ZM142.372 37.3742L141.922 37.1563L141.921 37.1578L142.372 37.3742ZM141.482 29.1242L141.108 29.4564L141.109 29.4577L141.482 29.1242ZM134.31 28.1398L134.047 27.7141L134.046 27.7152L134.31 28.1398ZM134.696 37.4328L134.299 37.7357L134.3 37.738L134.696 37.4328ZM139.923 30.4133L139.524 30.715L139.527 30.719L139.923 30.4133ZM139.946 37.4211L140.346 37.7222L140.347 37.7205L139.946 37.4211ZM148.161 40.2453V40.7453H148.661V40.2453H148.161ZM145.993 40.2453H145.493V40.7453H145.993V40.2453ZM148.161 22.2453H148.661V21.7453H148.161V22.2453ZM145.993 22.2453V21.7453H145.493V22.2453H145.993ZM157.935 40.2453H157.435V40.7453H157.935V40.2453ZM157.935 23.1828V22.6828H157.435V23.1828H157.935ZM168.739 32.7453L168.336 33.0404L168.339 33.0453L168.739 32.7453ZM166.56 31.2687L166.362 30.8094L165.061 31.3688L166.425 31.7502L166.56 31.2687ZM168.411 29.8508L168.813 30.1491L168.814 30.1467L168.411 29.8508ZM167.685 24.3312L167.367 24.7172L167.368 24.7185L167.685 24.3312ZM160.185 32.2648V31.7648H159.685V32.2648H160.185ZM160.185 38.4054H159.685V38.9054H160.185V38.4054ZM166.372 37.5968L166.706 37.9692L166.706 37.969L166.372 37.5968ZM160.185 30.4601H159.685V30.9601H160.185V30.4601ZM160.185 25.0343V24.5343H159.685V25.0343H160.185ZM166.009 25.6789L165.7 26.0721L165.704 26.0748L166.009 25.6789ZM165.939 29.7218L165.62 29.3369L165.617 29.339L165.939 29.7218ZM180.376 38.9914L180.876 38.9727L180.828 37.6885L179.995 38.6675L180.376 38.9914ZM180.423 40.2453L179.923 40.264L179.941 40.7453H180.423V40.2453ZM182.485 40.2453V40.7453H182.985V40.2453H182.485ZM182.485 27.5656H182.985V27.0656H182.485V27.5656ZM180.318 27.5656V27.0656H179.818V27.5656H180.318ZM180.318 36.7883L180.775 36.9908L180.818 36.8941V36.7883H180.318ZM174.669 27.5656H175.169V27.0656H174.669V27.5656ZM172.501 27.5656V27.0656H172.001V27.5656H172.501ZM172.501 35.8156H172.001L172.001 35.8181L172.501 35.8156ZM173.568 39.3078L173.194 39.6404L173.198 39.6443L173.568 39.3078ZM192.505 35.5226L192.205 35.9227L192.213 35.9285L192.505 35.5226ZM192.423 38.2179L192.7 38.634L192.702 38.633L192.423 38.2179ZM188.298 38.0773L187.986 38.4684L187.993 38.4732L188.298 38.0773ZM187.431 36.3429L187.93 36.3161L187.905 35.8429H187.431V36.3429ZM185.263 36.3429V35.8429H184.763V36.3429H185.263ZM185.919 38.4406L185.505 38.7203L185.509 38.726L185.919 38.4406ZM193.982 39.4601L194.282 39.8601L194.284 39.8585L193.982 39.4601ZM194.849 35.007L194.434 35.286L194.439 35.2937L194.849 35.007ZM190.724 32.9211L190.614 33.4089L190.615 33.4091L190.724 32.9211ZM192.282 29.757L191.956 30.1362L191.959 30.1387L192.282 29.757ZM193.044 31.2922H192.544V31.7922H193.044V31.2922ZM195.224 31.2922V31.7922H195.724V31.2922H195.224ZM193.876 28.4445L193.556 28.8286L193.558 28.83L193.876 28.4445ZM187.009 28.4093L186.693 28.0216L186.692 28.023L187.009 28.4093ZM186.153 32.6633L185.739 32.9423L185.742 32.9471L186.153 32.6633ZM187.583 33.8351L187.355 34.2802L187.357 34.2813L187.583 33.8351ZM190.196 34.6789L190.092 35.1678L190.092 35.1679L190.196 34.6789ZM14.2902 1.00181C11.6187 1.21854 8.81627 2.08382 6.76852 3.33399L7.2896 4.1875C9.18773 3.02867 11.8355 2.20423 14.3711 1.99853L14.2902 1.00181ZM34.5232 0.96021C29.1364 0.957356 24.1718 0.96021 20.5118 0.967347C18.6818 0.970915 17.1776 0.975554 16.1097 0.981089C15.0623 0.986517 14.3984 0.992602 14.2883 1.00197L14.3731 1.99837C14.3686 1.99875 14.3752 1.99817 14.4034 1.99728C14.4279 1.9965 14.4612 1.99569 14.504 1.99486C14.5895 1.99321 14.7079 1.99158 14.8581 1.99C15.1583 1.98682 15.5817 1.98384 16.1149 1.98108C17.1812 1.97555 18.6842 1.97091 20.5137 1.96734C24.1727 1.96021 29.1364 1.95736 34.5227 1.96021L34.5232 0.96021ZM54.8454 1.07393C54.4891 1.02185 53.9664 0.998646 51.2942 0.984479C48.6008 0.970199 43.693 0.965918 34.5233 0.96021L34.5226 1.96021C43.6938 1.96592 48.5985 1.9702 51.2889 1.98446C54.0002 1.99884 54.4322 2.02416 54.7008 2.06341L54.8454 1.07393ZM64.2817 7.39792C62.5006 3.79924 59.4029 1.76165 54.8477 1.07427L54.6985 2.06308C58.9954 2.71149 61.7761 4.58995 63.3855 7.8415L64.2817 7.39792ZM65.744 13.2463C65.5784 10.9709 65.1092 9.07255 64.2818 7.39821L63.3853 7.84122C64.1433 9.37507 64.5882 11.1416 64.7466 13.3189L65.744 13.2463ZM65.7916 37.5156C65.7974 29.2896 65.7974 23.3822 65.7901 19.4554C65.7829 15.5472 65.7689 13.5715 65.7438 13.2444L64.7468 13.3207C64.768 13.5988 64.7829 15.5134 64.7901 19.4573C64.7974 23.3826 64.7974 29.289 64.7916 37.5149L65.7916 37.5156ZM65.7742 60.8921L65.7916 37.5157L64.7916 37.5149L64.7742 60.8913L65.7742 60.8921ZM65.6212 61.4883L65.7543 61.0316L64.7942 60.7518L64.6611 61.2085L65.6212 61.4883ZM61.8119 65.0522C63.7605 64.5498 65.1001 63.3163 65.622 61.4855L64.6603 61.2113C64.2449 62.6686 63.2008 63.6614 61.5622 64.0838L61.8119 65.0522ZM60.858 65.2253C61.107 65.2001 61.5331 65.1272 61.817 65.0508L61.5571 64.0852C61.3319 64.1458 60.9596 64.2099 60.7573 64.2304L60.858 65.2253ZM60.4257 65.2605L60.848 65.2262L60.7672 64.2295L60.3448 64.2637L60.4257 65.2605ZM60.8853 67.2054V64.7621H59.8853V67.2054H60.8853ZM60.2284 72.1829C60.5114 71.594 60.6833 71.1224 60.7771 70.39C60.8672 69.6862 60.8853 68.7399 60.8853 67.2054H59.8853C59.8853 68.7534 59.8657 69.6338 59.7852 70.263C59.7083 70.8636 59.5764 71.231 59.3271 71.7497L60.2284 72.1829ZM55.7221 74.9889C56.7674 74.9402 57.6806 74.6935 58.446 74.2204C59.2141 73.7456 59.8041 73.0608 60.2279 72.1838L59.3276 71.7487C58.9761 72.4759 58.5073 73.0069 57.9202 73.3698C57.3302 73.7345 56.5915 73.9473 55.6755 73.99L55.7221 74.9889ZM50.3257 71.5018C50.7301 72.6709 51.4084 73.5836 52.3424 74.1843C53.2737 74.7832 54.4201 75.0467 55.721 74.9889L55.6766 73.9899C54.536 74.0406 53.6052 73.8075 52.8833 73.3432C52.164 72.8806 51.6128 72.1636 51.2708 71.1749L50.3257 71.5018ZM49.9916 67.3652C49.9916 70.1542 50.0156 70.5964 50.3253 71.5004L51.2713 71.1763C51.0256 70.4591 50.9916 70.1934 50.9916 67.3652H49.9916ZM49.9916 64.745V67.3652H50.9916V64.745H49.9916ZM33.1922 65.245H50.4916V64.245H33.1922V65.245ZM15.8928 65.245H33.1922V64.245H15.8928V65.245ZM16.3928 67.3652V64.745H15.3928V67.3652H16.3928ZM16.0592 71.5004C16.3689 70.5964 16.3928 70.1542 16.3928 67.3652H15.3928C15.3928 70.1934 15.3589 70.4591 15.1132 71.1763L16.0592 71.5004ZM13 74.6904C14.4198 74.2234 15.5237 73.0419 16.0585 71.5024L15.1139 71.1743C14.6651 72.4662 13.7671 73.3854 12.6875 73.7405L13 74.6904ZM9.38027 74.8194C10.4478 75.0953 11.9337 75.039 12.9991 74.6907L12.6884 73.7402C11.7982 74.0312 10.5069 74.0777 9.63046 73.8512L9.38027 74.8194ZM6.15738 72.1856C6.82834 73.56 7.90696 74.4465 9.38268 74.82L9.62804 73.8506C8.44232 73.5505 7.60007 72.8614 7.05602 71.7469L6.15738 72.1856ZM5.4992 67.1939C5.4992 68.7315 5.51728 69.6874 5.60732 70.3966C5.70099 71.1344 5.87281 71.6088 6.1583 72.1875L7.0551 71.745C6.8083 71.2448 6.67637 70.8773 6.59936 70.2707C6.51872 69.6355 6.4992 68.7447 6.4992 67.1939H5.4992ZM5.4992 64.745V67.1939H6.4992V64.745H5.4992ZM5.66362 65.245H5.9992V64.245H5.66362V65.245ZM3.25681 64.6318C4.0162 65.0157 4.89722 65.245 5.66362 65.245V64.245C5.07616 64.245 4.34874 64.0633 3.70798 63.7393L3.25681 64.6318ZM2.20275 63.8137C2.59273 64.2045 2.90089 64.4492 3.25415 64.6304L3.71064 63.7407C3.48533 63.6251 3.26119 63.4587 2.91059 63.1074L2.20275 63.8137ZM1.28331 62.5734C1.41622 62.8357 1.52564 63.0351 1.66963 63.2294C1.81266 63.4225 1.97857 63.5955 2.20781 63.8187L2.90554 63.1024C2.68349 62.8861 2.56589 62.7593 2.47315 62.6342C2.38138 62.5103 2.30276 62.3729 2.17531 62.1214L1.28331 62.5734ZM0.784523 61.3104C0.881468 61.6611 1.10287 62.2173 1.28331 62.5734L2.17531 62.1214C2.02018 61.8152 1.82501 61.3211 1.74838 61.0439L0.784523 61.3104ZM0.627967 60.7383L0.784182 61.3091L1.74872 61.0452L1.5925 60.4743L0.627967 60.7383ZM0.610235 37.0301V60.6063H1.61024V37.0301H0.610235ZM0.690008 12.8156C0.66886 12.9712 0.656696 13.373 0.64689 14.1337C0.636821 14.9146 0.629403 16.1116 0.623979 17.895C0.613128 21.4623 0.610235 27.3829 0.610235 37.0301H1.61024C1.61024 27.3824 1.61313 21.4635 1.62397 17.898C1.6294 16.115 1.63681 14.9222 1.64681 14.1465C1.65707 13.3505 1.67022 13.0288 1.68089 12.9503L0.690008 12.8156ZM6.76879 3.33383C3.27265 5.46526 1.25892 8.62638 0.689998 12.8157L1.6809 12.9503C2.21127 9.04488 4.06242 6.15496 7.28933 4.18767L6.76879 3.33383ZM49.4715 9.28146C49.7337 9.36879 49.9234 9.58345 49.9753 9.89412L50.9617 9.72946C50.8515 9.06968 50.4164 8.54223 49.7876 8.33272L49.4715 9.28146ZM16.8912 9.28671C16.854 9.29919 16.8244 9.30399 16.8193 9.30485C16.809 9.30659 16.8016 9.30744 16.7993 9.30769C16.7945 9.30823 16.794 9.30815 16.8004 9.30773C16.8123 9.30693 16.8335 9.30586 16.8661 9.30467C16.9303 9.30231 17.0249 9.29994 17.1497 9.29759C17.3983 9.29292 17.7574 9.28852 18.212 9.28443C19.1209 9.27626 20.4064 9.26935 21.9438 9.26374C25.0184 9.2525 29.0971 9.24644 33.1764 9.24572C37.2558 9.24501 41.3352 9.24965 44.4111 9.25981C45.9493 9.2649 47.2358 9.27136 48.1457 9.27922C48.6009 9.28315 48.9605 9.28742 49.2098 9.29202C49.3349 9.29432 49.4298 9.29667 49.4944 9.299C49.5272 9.30019 49.5486 9.30125 49.5609 9.30206C49.5674 9.30249 49.5671 9.30258 49.5627 9.30209C49.5606 9.30185 49.5536 9.30107 49.5438 9.29945C49.5386 9.29861 49.5111 9.29422 49.4764 9.28306L49.7827 8.33112C49.7255 8.31271 49.6726 8.30815 49.6722 8.30811C49.6559 8.30631 49.6398 8.30509 49.6267 8.30423C49.5998 8.30245 49.5669 8.30097 49.5306 8.29965C49.457 8.29699 49.355 8.29452 49.2282 8.29219C48.9739 8.2875 48.6104 8.2832 48.1543 8.27926C47.2417 8.27137 45.9531 8.2649 44.4144 8.25982C41.3369 8.24965 37.2562 8.24501 33.1762 8.24572C29.0962 8.24644 25.0163 8.2525 21.9402 8.26374C20.4023 8.26936 19.1146 8.27628 18.203 8.28448C17.7475 8.28857 17.3845 8.293 17.1308 8.29777C17.0044 8.30015 16.9027 8.30265 16.8295 8.30534C16.7933 8.30666 16.7605 8.30816 16.7336 8.30996C16.7206 8.31083 16.7044 8.31206 16.6879 8.31392C16.6797 8.31483 16.6674 8.31634 16.6531 8.31875C16.6441 8.32027 16.6115 8.32573 16.5724 8.33889L16.8912 9.28671ZM16.4325 10.1463C16.3369 9.80137 16.5431 9.40676 16.8948 9.28548L16.5688 8.34011C15.7286 8.62984 15.2289 9.5482 15.4689 10.4135L16.4325 10.1463ZM16.9207 10.6341C16.8368 10.6091 16.7245 10.5426 16.62 10.437C16.5149 10.3308 16.4534 10.2213 16.4324 10.146L15.4689 10.4138C15.5464 10.6924 15.7162 10.9454 15.9092 11.1403C16.1026 11.3358 16.3548 11.5091 16.6355 11.5926L16.9207 10.6341ZM33.1922 10.699C26.107 10.699 22.0701 10.6961 19.7719 10.684C18.622 10.6779 17.9114 10.6695 17.473 10.6582C17.2533 10.6525 17.1075 10.6462 17.0115 10.6395C16.9025 10.632 16.8913 10.6257 16.9151 10.6325L16.641 11.5942C16.7299 11.6195 16.8377 11.6299 16.9423 11.6371C17.06 11.6453 17.2228 11.652 17.4471 11.6579C17.8968 11.6695 18.6167 11.6779 19.7666 11.684C22.0681 11.6961 26.1081 11.699 33.1922 11.699V10.699ZM49.4694 10.6325C49.4931 10.6257 49.482 10.632 49.3729 10.6395C49.2769 10.6462 49.1312 10.6525 48.9115 10.6582C48.4731 10.6695 47.7624 10.6779 46.6125 10.684C44.3143 10.6961 40.2774 10.699 33.1922 10.699V11.699C40.2764 11.699 44.3164 11.6961 46.6178 11.684C47.7678 11.6779 48.4876 11.6695 48.9374 11.6579C49.1617 11.652 49.3244 11.6453 49.4421 11.6371C49.5468 11.6299 49.6546 11.6195 49.7435 11.5942L49.4694 10.6325ZM49.9749 9.89162C49.9945 10.013 49.9614 10.1733 49.8591 10.328C49.7574 10.4817 49.6126 10.5908 49.4668 10.6332L49.746 11.5934C50.1499 11.476 50.4795 11.2027 50.6931 10.8797C50.9061 10.5578 51.0292 10.1471 50.9621 9.73196L49.9749 9.89162ZM56.7609 16.6882C58.1573 17.0635 59.0904 17.9188 59.5547 19.2423L60.4984 18.9112C59.9212 17.2662 58.7252 16.1806 57.0204 15.7225L56.7609 16.6882ZM56.2926 16.5627L56.7612 16.6883L57.0201 15.7224L56.5514 15.5968L56.2926 16.5627ZM33.3946 16.574L56.4219 16.5798L56.4221 15.5798L33.3949 15.574L33.3946 16.574ZM10.0942 16.6085C10.0651 16.6129 10.047 16.6124 10.0847 16.6111C10.1067 16.6103 10.1391 16.6095 10.183 16.6087C10.2703 16.6071 10.396 16.6054 10.559 16.6038C10.8846 16.6007 11.3545 16.5977 11.954 16.5949C13.1529 16.5894 14.8672 16.5847 16.9763 16.5812C21.1944 16.574 26.9899 16.5712 33.3945 16.574L33.395 15.574C26.9899 15.5712 21.1936 15.574 16.9746 15.5812C14.8652 15.5848 13.1497 15.5894 11.9494 15.5949C11.3494 15.5977 10.8775 15.6007 10.5492 15.6039C10.3853 15.6055 10.256 15.6071 10.1641 15.6089C10.1184 15.6097 10.0802 15.6107 10.0508 15.6117C10.0373 15.6121 9.98743 15.6134 9.94637 15.6195L10.0942 16.6085ZM7.56257 17.9709C8.17193 17.2444 9.06429 16.7581 10.0922 16.6088L9.94843 15.6192C8.69671 15.801 7.57563 16.3993 6.79641 17.3283L7.56257 17.9709ZM6.72166 19.6825C6.78209 19.4392 6.91606 19.0981 7.08255 18.7607C7.25046 18.4205 7.42918 18.1293 7.56192 17.9717L6.79706 17.3275C6.58843 17.5752 6.36795 17.9491 6.18581 18.3181C6.00227 18.6901 5.83538 19.1024 5.75116 19.4414L6.72166 19.6825ZM6.51655 28.5514C6.49327 20.648 6.50393 20.5523 6.72145 19.6834L5.75138 19.4405C5.49446 20.4668 5.49356 20.7479 5.51656 28.5544L6.51655 28.5514ZM6.62316 36.418C6.5907 36.288 6.56301 36.1089 6.54687 35.0239C6.53102 33.9582 6.52523 32.0643 6.51655 28.5517L5.51655 28.5541C5.52523 32.063 5.53101 33.9652 5.54698 35.0388C5.56267 36.0931 5.58705 36.3963 5.65295 36.6603L6.62316 36.418ZM7.88064 38.7891C7.25628 38.1832 6.8845 37.4977 6.62402 36.4215L5.65209 36.6567C5.94704 37.8754 6.39684 38.7426 7.1842 39.5067L7.88064 38.7891ZM9.71344 39.776C8.94317 39.5834 8.37263 39.2745 7.88359 38.792L7.18125 39.5038C7.81465 40.1288 8.55168 40.5163 9.47086 40.7462L9.71344 39.776ZM10.2581 39.9132L9.71429 39.7762L9.47001 40.7459L10.0139 40.8829L10.2581 39.9132ZM33.1922 39.8981H10.136V40.8981H33.1922V39.8981ZM56.2485 39.8981H33.1922V40.8981H56.2485V39.8981ZM56.6702 39.7762L56.1263 39.9132L56.3706 40.8829L56.9145 40.7459L56.6702 39.7762ZM58.5009 38.792C58.0118 39.2745 57.4413 39.5834 56.671 39.776L56.9136 40.7462C57.8328 40.5163 58.5698 40.1288 59.2032 39.5038L58.5009 38.792ZM59.7635 36.3761C59.5323 37.4425 59.1457 38.1609 58.5023 38.7906L59.2018 39.5053C60.0048 38.7193 60.4745 37.8164 60.7408 36.588L59.7635 36.3761ZM59.8563 28.1818C59.8563 31.8457 59.8549 33.8039 59.8412 34.9031C59.8273 36.0147 59.8003 36.2078 59.7637 36.3755L60.7407 36.5886C60.8025 36.3053 60.8275 36.0104 60.8411 34.9156C60.8549 33.8084 60.8563 31.8421 60.8563 28.1818H59.8563ZM59.6745 19.5909C59.7579 19.8598 59.8096 20.1563 59.8341 21.3429C59.8584 22.5229 59.8563 24.5286 59.8563 28.1818H60.8563C60.8563 24.5366 60.8585 22.5157 60.8339 21.3223C60.8094 20.1354 60.759 19.7117 60.6296 19.2946L59.6745 19.5909ZM59.5543 19.2409C59.6072 19.3933 59.6425 19.4876 59.6745 19.5909L60.6296 19.2946C60.5909 19.1699 60.5431 19.04 60.4988 18.9125L59.5543 19.2409ZM12.0623 50.793C14.5336 51.4141 15.957 53.9717 15.1745 56.3696L16.1252 56.6798C17.09 53.7231 15.3312 50.5835 12.306 49.8232L12.0623 50.793ZM7.25609 52.6205C8.26432 51.0849 10.2263 50.3298 12.0619 50.7929L12.3065 49.8233C10.0689 49.2588 7.66838 50.1706 6.42017 52.0716L7.25609 52.6205ZM7.68535 57.9548C6.32702 56.4867 6.14841 54.3137 7.25655 52.6198L6.41971 52.0723C5.06312 54.146 5.27794 56.8253 6.95134 58.6339L7.68535 57.9548ZM10.7174 59.3709C9.4927 59.2931 8.48054 58.8163 7.68576 57.9552L6.95094 58.6335C7.9266 59.6905 9.18245 60.2754 10.654 60.3689L10.7174 59.3709ZM15.1742 56.3706C14.5684 58.2402 12.6967 59.5042 10.7192 59.371L10.6521 60.3688C13.0834 60.5325 15.3774 58.9879 16.1255 56.6788L15.1742 56.3706ZM55.9627 50.6839C56.975 50.8184 57.8574 51.2451 58.5645 51.9427L59.2669 51.2309C58.4002 50.3758 57.3155 49.8549 56.0945 49.6926L55.9627 50.6839ZM52.1725 52.0633C53.1887 50.9987 54.5712 50.5052 55.9649 50.6842L56.0923 49.6923C54.3732 49.4716 52.6778 50.0856 51.4491 51.3729L52.1725 52.0633ZM51.2099 56.3695C50.711 54.8413 51.0803 53.2073 52.1724 52.0634L51.4491 51.3728C50.0997 52.7863 49.6474 54.8058 50.2593 56.6799L51.2099 56.3695ZM55.6652 59.371C53.6878 59.5042 51.816 58.2402 51.2103 56.3706L50.259 56.6788C51.0071 58.9879 53.3011 60.5325 55.7324 60.3688L55.6652 59.371ZM59.8312 55.4867C59.5605 57.6594 57.8899 59.2264 55.6664 59.3709L55.7312 60.3688C58.4256 60.1937 60.4926 58.2671 60.8236 55.6103L59.8312 55.4867ZM58.5655 51.9437C59.4991 52.8597 59.9852 54.2307 59.8311 55.4877L60.8237 55.6094C61.0167 54.0349 60.4151 52.3576 59.2659 51.2299L58.5655 51.9437ZM83.9049 32.1593C82.0051 31.6132 80.6846 30.9603 79.8848 30.2312L79.2112 30.9703C80.177 31.8506 81.669 32.5571 83.6286 33.1204L83.9049 32.1593ZM87.2634 33.6062C86.5959 33.0811 85.4519 32.6069 83.9057 32.1595L83.6278 33.1201C85.1597 33.5634 86.1407 33.9954 86.6451 34.3922L87.2634 33.6062ZM88.3331 35.9328C88.3331 34.9647 87.9854 34.1645 87.2601 33.6037L86.6484 34.3947C87.095 34.7401 87.3331 35.229 87.3331 35.9328H88.3331ZM87.1878 38.3103C87.9511 37.726 88.3331 36.9155 88.3331 35.9328H87.3331C87.3331 36.6219 87.0823 37.1317 86.58 37.5162L87.1878 38.3103ZM84.1535 39.1398C85.3994 39.1398 86.4342 38.8871 87.1878 38.3103L86.58 37.5162C86.068 37.9081 85.2825 38.1398 84.1535 38.1398V39.1398ZM80.7885 38.1443C81.6659 38.8247 82.804 39.1398 84.1535 39.1398V38.1398C82.956 38.1398 82.0551 37.8611 81.4013 37.3541L80.7885 38.1443ZM79.4581 35.3C79.4581 36.4722 79.8979 37.4374 80.784 38.1408L81.4057 37.3576C80.7762 36.8578 80.4581 36.1902 80.4581 35.3H79.4581ZM77.6964 35.8H79.9581V34.8H77.6964V35.8ZM78.9264 37.6734C78.4408 36.9797 78.1964 36.194 78.1964 35.3H77.1964C77.1964 36.3903 77.4989 37.378 78.1071 38.2469L78.9264 37.6734ZM81.0759 39.3551C80.1287 38.9325 79.4195 38.3679 78.9244 37.6707L78.109 38.2496C78.7234 39.1148 79.5844 39.7847 80.6685 40.2683L81.0759 39.3551ZM84.1535 39.9797C83.0467 39.9797 82.0218 39.7698 81.073 39.3538L80.6714 40.2696C81.7539 40.7442 82.9165 40.9797 84.1535 40.9797V39.9797ZM88.1731 38.8409C87.2071 39.5829 85.884 39.9797 84.1535 39.9797V40.9797C86.0323 40.9797 87.592 40.5483 88.7823 39.634L88.1731 38.8409ZM89.5949 35.9093C89.5949 37.1401 89.1253 38.1026 88.1713 38.8423L88.7841 39.6326C89.9863 38.7005 90.5949 37.4443 90.5949 35.9093H89.5949ZM89.082 33.9079C89.4178 34.4586 89.5949 35.1194 89.5949 35.9093H90.5949C90.5949 34.9649 90.3813 34.1179 89.9358 33.3873L89.082 33.9079ZM87.4729 32.4021C88.2237 32.8467 88.7492 33.3509 89.0797 33.9041L89.9381 33.3912C89.5031 32.6631 88.841 32.0501 87.9825 31.5416L87.4729 32.4021ZM84.2646 31.1291C85.665 31.5215 86.7258 31.948 87.468 32.3991L87.9874 31.5446C87.1358 31.0269 85.9779 30.5706 84.5345 30.1662L84.2646 31.1291ZM81.0749 29.7251C81.7498 30.2668 82.8341 30.726 84.2639 31.1289L84.5352 30.1664C83.1368 29.7724 82.2134 29.3566 81.7008 28.9452L81.0749 29.7251ZM80.0089 27.5656C80.0089 28.4251 80.3806 29.1512 81.0693 29.7205L81.7064 28.9498C81.2232 28.5503 81.0089 28.0967 81.0089 27.5656H80.0089ZM81.126 25.1449C80.3742 25.7349 80.0089 26.5634 80.0089 27.5656H81.0089C81.0089 26.8335 81.2608 26.3103 81.7434 25.9316L81.126 25.1449ZM84.0363 24.3C82.8582 24.3 81.8675 24.561 81.1254 25.1454L81.7441 25.9311C82.2519 25.5311 82.9956 25.3 84.0363 25.3V24.3ZM87.1491 25.3198C86.3728 24.6175 85.3115 24.3 84.0363 24.3V25.3C85.1517 25.3 85.942 25.5762 86.4782 26.0614L87.1491 25.3198ZM88.298 28.1164C88.298 26.9696 87.9277 26.015 87.1466 25.3176L86.4806 26.0636C87.012 26.5381 87.298 27.2006 87.298 28.1164H88.298ZM90.0597 27.6164H87.798V28.6164H90.0597V27.6164ZM88.8763 25.7718C89.333 26.4884 89.5597 27.2662 89.5597 28.1164H90.5597C90.5597 27.0759 90.2786 26.1116 89.7196 25.2344L88.8763 25.7718ZM86.9446 24.0768C87.7911 24.4929 88.4283 25.0578 88.8745 25.7688L89.7215 25.2374C89.1677 24.3547 88.383 23.6696 87.3857 23.1794L86.9446 24.0768ZM84.0363 23.4484C85.1426 23.4484 86.1077 23.6619 86.9431 24.0761L87.3873 23.1801C86.3946 22.688 85.2737 22.4484 84.0363 22.4484V23.4484ZM80.1577 24.6595C81.1271 23.8657 82.4052 23.4484 84.0363 23.4484V22.4484C82.2298 22.4484 80.711 22.9139 79.5242 23.8858L80.1577 24.6595ZM78.7355 27.6008C78.7355 26.412 79.1994 25.4429 80.1574 24.6597L79.5245 23.8855C78.3419 24.8523 77.7355 26.102 77.7355 27.6008H78.7355ZM79.8882 30.2344C79.1145 29.5159 78.7355 28.6483 78.7355 27.6008H77.7355C77.7355 28.9282 78.2315 30.0606 79.2078 30.9672L79.8882 30.2344ZM97.7355 39.2101C98.6187 39.2101 99.4068 38.9393 100.078 38.3954L99.4479 37.6186C98.9626 38.0122 98.3991 38.2101 97.7355 38.2101V39.2101ZM94.7597 37.8297C95.4687 38.7596 96.4848 39.2101 97.7355 39.2101V38.2101C96.7518 38.2101 96.0491 37.8716 95.555 37.2234L94.7597 37.8297ZM93.755 34.1515C93.755 35.6724 94.0669 36.9209 94.7597 37.8297L95.555 37.2234C95.0447 36.554 94.755 35.5526 94.755 34.1515H93.755ZM93.755 33.7414V34.1515H94.755V33.7414H93.755ZM94.7597 30.0046C94.0655 30.9153 93.755 32.1851 93.755 33.7414H94.755C94.755 32.2977 95.0461 31.2784 95.555 30.6109L94.7597 30.0046ZM97.7238 28.6125C96.484 28.6125 95.4744 29.0702 94.7602 30.0041L95.5545 30.6115C96.0591 29.9517 96.7604 29.6125 97.7238 29.6125V28.6125ZM100.132 29.5482C99.4776 28.9214 98.6633 28.6125 97.7238 28.6125V29.6125C98.4249 29.6125 98.9856 29.8348 99.4404 30.2704L100.132 29.5482ZM101.222 31.887C101.151 30.951 100.788 30.1588 100.127 29.5433L99.4457 30.2754C99.9093 30.7068 100.172 31.2583 100.225 31.963L101.222 31.887ZM102.775 31.425H100.724V32.425H102.775V31.425ZM100.928 28.9801C101.767 29.7355 102.218 30.7118 102.275 31.9479L103.274 31.902C103.206 30.4194 102.65 29.1848 101.597 28.2371L100.928 28.9801ZM97.7238 27.8312C99.0377 27.8312 100.093 28.2211 100.927 28.9787L101.599 28.2385C100.558 27.2929 99.2535 26.8312 97.7238 26.8312V27.8312ZM94.9767 28.5523C95.7374 28.0778 96.6466 27.8312 97.7238 27.8312V26.8312C96.4885 26.8312 95.3898 27.1159 94.4474 27.7039L94.9767 28.5523ZM93.219 30.5796C93.6342 29.699 94.2208 29.0283 94.9785 28.5512L94.4456 27.705C93.5158 28.2904 92.8055 29.1119 92.3145 30.1531L93.219 30.5796ZM92.5871 33.6593C92.5871 32.4868 92.802 31.4639 93.219 30.5796L92.3145 30.1531C91.8252 31.1907 91.5871 32.3631 91.5871 33.6593H92.5871ZM92.5871 34.0226V33.6593H91.5871V34.0226H92.5871ZM93.9861 38.427C93.0722 37.3866 92.5871 35.9384 92.5871 34.0226H91.5871C91.5871 36.1069 92.1175 37.8149 93.2348 39.087L93.9861 38.427ZM97.7355 39.9797C96.1321 39.9797 94.9001 39.4526 93.9838 38.4243L93.2372 39.0897C94.3677 40.3582 95.8858 40.9797 97.7355 40.9797V39.9797ZM99.9458 39.4483C99.2505 39.8031 98.5159 39.9797 97.7355 39.9797V40.9797C98.6739 40.9797 99.5642 40.7656 100.4 40.3391L99.9458 39.4483ZM101.615 38.036C101.205 38.6197 100.654 39.0908 99.9476 39.4474L100.398 40.34C101.239 39.9154 101.922 39.3397 102.434 38.6108L101.615 38.036ZM102.275 36.2223C102.242 36.8459 102.028 37.4484 101.615 38.036L102.434 38.6108C102.943 37.886 103.229 37.1056 103.274 36.276L102.275 36.2223ZM100.724 36.7492H102.775V35.7492H100.724V36.7492ZM100.078 38.3954C100.755 37.8466 101.147 37.1393 101.222 36.2935L100.226 36.2049C100.176 36.7653 99.9274 37.2299 99.4479 37.6186L100.078 38.3954ZM107.768 29.4165C108.632 28.355 109.739 27.8312 111.13 27.8312V26.8312C109.443 26.8312 108.05 27.4872 106.992 28.785L107.768 29.4165ZM106.88 22.2453V29.1008H107.88V22.2453H106.88ZM105.212 22.7453H107.38V21.7453H105.212V22.7453ZM105.712 40.2453V22.2453H104.712V40.2453H105.712ZM107.38 39.7453H105.212V40.7453H107.38V39.7453ZM106.88 31.2101V40.2453H107.88V31.2101H106.88ZM108.334 29.3251C107.731 29.7508 107.263 30.3094 106.931 30.9911L107.83 31.4291C108.091 30.8921 108.451 30.4664 108.911 30.1421L108.334 29.3251ZM110.474 28.6711C109.676 28.6711 108.956 28.8856 108.334 29.3251L108.911 30.1421C109.35 29.8315 109.865 29.6711 110.474 29.6711V28.6711ZM112.75 29.4871C112.213 28.9089 111.416 28.6711 110.474 28.6711V29.6711C111.266 29.6711 111.742 29.8707 112.018 30.1675L112.75 29.4871ZM113.517 31.8504C113.508 30.8736 113.284 30.0505 112.747 29.4836L112.021 30.171C112.312 30.4791 112.509 31.0076 112.517 31.8589L113.517 31.8504ZM113.517 40.2453V31.8547H112.517V40.2453H113.517ZM115.185 39.7453H113.017V40.7453H115.185V39.7453ZM114.685 31.8664V40.2453H115.685V31.8664H114.685ZM111.13 27.8312C112.376 27.8312 113.228 28.1798 113.781 28.7983C114.344 29.4279 114.673 30.4221 114.685 31.8703L115.685 31.8625C115.672 30.2872 115.315 29.0138 114.526 28.1318C113.728 27.2385 112.564 26.8312 111.13 26.8312V27.8312ZM118.357 33.7883C118.357 32.6125 118.585 31.5718 119.032 30.656L118.134 30.2173C117.612 31.286 117.357 32.4796 117.357 33.7883H118.357ZM118.357 33.9406V33.7883H117.357V33.9406H118.357ZM119.824 38.3545C118.861 37.2706 118.357 35.8164 118.357 33.9406H117.357C117.357 36.0023 117.915 37.7121 119.077 39.0189L119.824 38.3545ZM123.634 39.9797C122.046 39.9797 120.791 39.4343 119.823 38.3532L119.078 39.0202C120.25 40.3297 121.784 40.9797 123.634 40.9797V39.9797ZM126.392 39.2353C125.605 39.7274 124.691 39.9797 123.634 39.9797V40.9797C124.858 40.9797 125.96 40.685 126.922 40.0833L126.392 39.2353ZM128.234 37.1578C127.805 38.0523 127.192 38.7399 126.394 39.2343L126.921 40.0844C127.888 39.485 128.627 38.6492 129.135 37.5906L128.234 37.1578ZM128.9 34.0461C128.9 35.2147 128.674 36.2481 128.235 37.1563L129.135 37.5921C129.648 36.5315 129.9 35.3461 129.9 34.0461H128.9ZM128.9 33.8937V34.0461H129.9V33.8937H128.9ZM127.422 29.4577C128.392 30.541 128.9 32.002 128.9 33.8937H129.9C129.9 31.8166 129.337 30.098 128.167 28.7907L127.422 29.4577ZM123.61 27.8312C125.207 27.8312 126.461 28.377 127.42 29.4564L128.168 28.792C127.002 27.4807 125.467 26.8312 123.61 26.8312V27.8312ZM120.884 28.5655C121.674 28.0792 122.578 27.8312 123.61 27.8312V26.8312C122.409 26.8312 121.321 27.1223 120.36 27.7141L120.884 28.5655ZM119.031 30.6589C119.486 29.7426 120.105 29.0503 120.886 28.5645L120.358 27.7152C119.405 28.3074 118.665 29.1464 118.135 30.2145L119.031 30.6589ZM119.536 34.0461C119.536 35.5274 119.878 36.7732 120.611 37.7357L121.407 37.1299C120.843 36.3892 120.536 35.3772 120.536 34.0461H119.536ZM120.625 30.0846C119.876 31.0565 119.536 32.4001 119.536 34.0461H120.536C120.536 32.5202 120.853 31.4262 121.417 30.695L120.625 30.0846ZM123.61 28.6125C122.384 28.6125 121.375 29.1109 120.625 30.0846L121.417 30.695C121.979 29.9657 122.696 29.6125 123.61 29.6125V28.6125ZM126.634 30.1115C125.883 29.1186 124.86 28.6125 123.61 28.6125V29.6125C124.549 29.6125 125.276 29.9735 125.837 30.715L126.634 30.1115ZM127.732 33.7883C127.732 32.3183 127.38 31.0764 126.631 30.1075L125.84 30.719C126.419 31.4689 126.732 32.4769 126.732 33.7883H127.732ZM126.659 37.7205C127.395 36.7364 127.732 35.4054 127.732 33.7883H126.732C126.732 35.2805 126.42 36.3713 125.858 37.1216L126.659 37.7205ZM123.634 39.2101C124.888 39.2101 125.913 38.7102 126.658 37.7222L125.86 37.1199C125.308 37.8507 124.583 38.2101 123.634 38.2101V39.2101ZM120.613 37.738C121.366 38.7149 122.388 39.2101 123.634 39.2101V38.2101C122.692 38.2101 121.965 37.8538 121.405 37.1276L120.613 37.738ZM132.044 33.7883C132.044 32.6125 132.273 31.5718 132.72 30.656L131.821 30.2173C131.3 31.286 131.044 32.4796 131.044 33.7883H132.044ZM132.044 33.9406V33.7883H131.044V33.9406H132.044ZM133.512 38.3545C132.548 37.2706 132.044 35.8164 132.044 33.9406H131.044C131.044 36.0023 131.603 37.7121 132.764 39.0189L133.512 38.3545ZM137.321 39.9797C135.733 39.9797 134.478 39.4343 133.51 38.3532L132.765 39.0202C133.938 40.3297 135.472 40.9797 137.321 40.9797V39.9797ZM140.08 39.2353C139.293 39.7274 138.379 39.9797 137.321 39.9797V40.9797C138.546 40.9797 139.647 40.685 140.61 40.0833L140.08 39.2353ZM141.921 37.1578C141.492 38.0523 140.88 38.7399 140.082 39.2343L140.608 40.0844C141.576 39.485 142.315 38.6492 142.823 37.5906L141.921 37.1578ZM142.587 34.0461C142.587 35.2147 142.362 36.2481 141.922 37.1563L142.822 37.5921C143.336 36.5315 143.587 35.3461 143.587 34.0461H142.587ZM142.587 33.8937V34.0461H143.587V33.8937H142.587ZM141.109 29.4577C142.079 30.541 142.587 32.002 142.587 33.8937H143.587C143.587 31.8166 143.025 30.098 141.854 28.7907L141.109 29.4577ZM137.298 27.8312C138.895 27.8312 140.148 28.377 141.108 29.4564L141.855 28.792C140.69 27.4807 139.155 26.8312 137.298 26.8312V27.8312ZM134.572 28.5655C135.361 28.0792 136.265 27.8312 137.298 27.8312V26.8312C136.097 26.8312 135.008 27.1223 134.047 27.7141L134.572 28.5655ZM132.719 30.6589C133.173 29.7426 133.792 29.0503 134.574 28.5645L134.046 27.7152C133.093 28.3074 132.353 29.1464 131.823 30.2145L132.719 30.6589ZM133.224 34.0461C133.224 35.5274 133.566 36.7732 134.299 37.7357L135.094 37.1299C134.53 36.3892 134.224 35.3772 134.224 34.0461H133.224ZM134.312 30.0846C133.563 31.0565 133.224 32.4001 133.224 34.0461H134.224C134.224 32.5202 134.541 31.4262 135.104 30.695L134.312 30.0846ZM137.298 28.6125C136.072 28.6125 135.063 29.1109 134.312 30.0846L135.104 30.695C135.666 29.9657 136.384 29.6125 137.298 29.6125V28.6125ZM140.322 30.1115C139.57 29.1186 138.547 28.6125 137.298 28.6125V29.6125C138.236 29.6125 138.963 29.9735 139.524 30.715L140.322 30.1115ZM141.419 33.7883C141.419 32.3183 141.067 31.0764 140.319 30.1075L139.527 30.719C140.107 31.4689 140.419 32.4769 140.419 33.7883H141.419ZM140.347 37.7205C141.083 36.7364 141.419 35.4054 141.419 33.7883H140.419C140.419 35.2805 140.107 36.3713 139.546 37.1216L140.347 37.7205ZM137.321 39.2101C138.576 39.2101 139.6 38.7102 140.346 37.7222L139.547 37.1199C138.996 37.8507 138.27 38.2101 137.321 38.2101V39.2101ZM134.3 37.738C135.053 38.7149 136.076 39.2101 137.321 39.2101V38.2101C136.38 38.2101 135.652 37.8538 135.092 37.1276L134.3 37.738ZM148.161 39.7453H145.993V40.7453H148.161V39.7453ZM147.661 22.2453V40.2453H148.661V22.2453H147.661ZM145.993 22.7453H148.161V21.7453H145.993V22.7453ZM146.493 40.2453V22.2453H145.493V40.2453H146.493ZM158.435 40.2453V23.1828H157.435V40.2453H158.435ZM163.853 39.7453H157.935V40.7453H163.853V39.7453ZM167.729 38.5578C166.857 39.3266 165.589 39.7453 163.853 39.7453V40.7453C165.742 40.7453 167.278 40.2889 168.39 39.3078L167.729 38.5578ZM169.048 35.3234C169.048 36.7361 168.596 37.793 167.729 38.5578L168.39 39.3078C169.508 38.3225 170.048 36.9732 170.048 35.3234H169.048ZM168.339 33.0453C168.806 33.6677 169.048 34.4187 169.048 35.3234H170.048C170.048 34.2281 169.751 33.2603 169.139 32.4453L168.339 33.0453ZM166.425 31.7502C167.246 31.9799 167.875 32.4104 168.336 33.0404L169.143 32.4502C168.541 31.6271 167.717 31.0732 166.694 30.7872L166.425 31.7502ZM168.01 29.5524C167.616 30.0829 167.072 30.504 166.362 30.8094L166.757 31.7281C167.609 31.3616 168.301 30.8373 168.813 30.1491L168.01 29.5524ZM168.591 27.7297C168.591 28.4247 168.396 29.0271 168.008 29.5549L168.814 30.1467C169.333 29.44 169.591 28.6283 169.591 27.7297H168.591ZM167.368 24.7185C168.162 25.3668 168.591 26.3404 168.591 27.7297H169.591C169.591 26.1189 169.082 24.8269 168.001 23.944L167.368 24.7185ZM163.513 23.6828C165.308 23.6828 166.564 24.0558 167.367 24.7172L168.003 23.9453C166.946 23.0754 165.421 22.6828 163.513 22.6828V23.6828ZM157.935 23.6828H163.513V22.6828H157.935V23.6828ZM159.685 32.2648V38.4054H160.685V32.2648H159.685ZM163.935 31.7648H160.185V32.7648H163.935V31.7648ZM167.786 35.3468C167.786 34.2312 167.481 33.3056 166.787 32.6673C166.101 32.0362 165.119 31.7648 163.935 31.7648V32.7648C164.985 32.7648 165.679 33.0071 166.11 33.4034C166.533 33.7923 166.786 34.4079 166.786 35.3468H167.786ZM166.706 37.969C167.439 37.3114 167.786 36.4163 167.786 35.3468H166.786C166.786 36.1836 166.524 36.7885 166.038 37.2247L166.706 37.969ZM163.9 38.9054C165.032 38.9054 165.988 38.6124 166.706 37.9692L166.039 37.2245C165.553 37.6594 164.861 37.9054 163.9 37.9054V38.9054ZM160.185 38.9054H163.9V37.9054H160.185V38.9054ZM160.185 30.9601H163.583V29.9601H160.185V30.9601ZM159.685 25.0343V30.4601H160.685V25.0343H159.685ZM163.513 24.5343H160.185V25.5343H163.513V24.5343ZM166.318 25.2857C165.644 24.7559 164.679 24.5343 163.513 24.5343V25.5343C164.581 25.5343 165.281 25.7425 165.7 26.072L166.318 25.2857ZM167.329 27.7179C167.329 26.6848 167.024 25.8307 166.314 25.283L165.704 26.0748C166.087 26.3708 166.329 26.8761 166.329 27.7179H167.329ZM166.258 30.1068C166.978 29.5099 167.329 28.6946 167.329 27.7179H166.329C166.329 28.4287 166.087 28.9494 165.62 29.3369L166.258 30.1068ZM163.583 30.9601C164.651 30.9601 165.561 30.6921 166.26 30.1047L165.617 29.339C165.144 29.736 164.484 29.9601 163.583 29.9601V30.9601ZM179.995 38.6675C179.27 39.5205 178.188 39.9797 176.661 39.9797V40.9797C178.4 40.9797 179.795 40.4466 180.757 39.3153L179.995 38.6675ZM180.923 40.2266L180.876 38.9727L179.876 39.0101L179.923 40.264L180.923 40.2266ZM182.485 39.7453H180.423V40.7453H182.485V39.7453ZM181.985 27.5656V40.2453H182.985V27.5656H181.985ZM180.318 28.0656H182.485V27.0656H180.318V28.0656ZM180.818 36.7883V27.5656H179.818V36.7883H180.818ZM177.013 39.1398C177.901 39.1398 178.68 38.9746 179.326 38.6131C179.977 38.2479 180.461 37.6995 180.775 36.9908L179.86 36.5857C179.628 37.1113 179.287 37.4887 178.837 37.7407C178.38 37.9964 177.781 38.1398 177.013 38.1398V39.1398ZM174.169 35.757C174.169 36.7728 174.373 37.6274 174.867 38.2345C175.377 38.8614 176.124 39.1398 177.013 39.1398V38.1398C176.339 38.1398 175.915 37.9377 175.643 37.6037C175.355 37.2499 175.169 36.6631 175.169 35.757H174.169ZM174.169 27.5656V35.757H175.169V27.5656H174.169ZM172.501 28.0656H174.669V27.0656H172.501V28.0656ZM173.001 35.8156V27.5656H172.001V35.8156H173.001ZM173.941 38.9751C173.349 38.3108 173.009 37.2849 173.001 35.8131L172.001 35.8181C172.009 37.4244 172.38 38.7266 173.194 39.6404L173.941 38.9751ZM176.661 39.9797C175.409 39.9797 174.529 39.621 173.937 38.9713L173.198 39.6443C174.028 40.5571 175.211 40.9797 176.661 40.9797V39.9797ZM193.673 36.882C193.673 36.148 193.383 35.5383 192.797 35.1167L192.213 35.9285C192.518 36.1476 192.673 36.4441 192.673 36.882H193.673ZM192.702 38.633C193.326 38.2136 193.673 37.6195 193.673 36.882H192.673C192.673 37.2539 192.52 37.5504 192.144 37.8029L192.702 38.633ZM190.454 39.2101C191.336 39.2101 192.1 39.0342 192.7 38.634L192.146 37.8019C191.762 38.0579 191.213 38.2101 190.454 38.2101V39.2101ZM187.993 38.4732C188.649 38.9799 189.485 39.2101 190.454 39.2101V38.2101C189.642 38.2101 189.04 38.0184 188.603 37.6814L187.993 38.4732ZM186.932 36.3698C186.978 37.23 187.329 37.9442 187.986 38.4683L188.61 37.6863C188.189 37.3511 187.962 36.909 187.93 36.3161L186.932 36.3698ZM185.263 36.8429H187.431V35.8429H185.263V36.8429ZM186.334 38.1609C185.949 37.5914 185.763 36.9888 185.763 36.3429H184.763C184.763 37.197 185.014 37.993 185.505 38.7202L186.334 38.1609ZM187.968 39.4864C187.259 39.1603 186.719 38.7152 186.33 38.1552L185.509 38.726C186.01 39.4472 186.696 40.0021 187.55 40.3948L187.968 39.4864ZM190.454 39.9797C189.498 39.9797 188.673 39.8106 187.968 39.4864L187.55 40.3948C188.408 40.7893 189.379 40.9797 190.454 40.9797V39.9797ZM193.682 39.0601C192.883 39.6589 191.821 39.9797 190.454 39.9797V40.9797C191.978 40.9797 193.267 40.6207 194.282 39.8601L193.682 39.0601ZM194.841 36.7297C194.841 37.7053 194.462 38.4684 193.679 39.0618L194.284 39.8585C195.314 39.0769 195.841 38.0196 195.841 36.7297H194.841ZM194.439 35.2937C194.698 35.6636 194.841 36.1328 194.841 36.7297H195.841C195.841 35.9671 195.656 35.2879 195.258 34.7203L194.439 35.2937ZM193.137 34.2355C193.755 34.5443 194.174 34.8998 194.434 35.2859L195.264 34.7281C194.883 34.1611 194.31 33.704 193.584 33.341L193.137 34.2355ZM190.615 33.4091C191.678 33.6462 192.514 33.9242 193.137 34.2355L193.584 33.341C192.863 32.9804 191.941 32.6803 190.833 32.4331L190.615 33.4091ZM188.216 32.5802C188.71 32.8973 189.532 33.1659 190.614 33.4089L190.833 32.4332C189.759 32.1919 189.089 31.9526 188.755 31.7385L188.216 32.5802ZM187.364 30.9758C187.364 31.6564 187.647 32.2158 188.216 32.5802L188.755 31.7385C188.495 31.5717 188.364 31.342 188.364 30.9758H187.364ZM188.227 29.2323C187.661 29.6692 187.364 30.2636 187.364 30.9758H188.364C188.364 30.5786 188.513 30.2745 188.838 30.0239L188.227 29.2323ZM190.384 28.6125C189.528 28.6125 188.789 28.7985 188.227 29.2323L188.838 30.0239C189.167 29.7702 189.662 29.6125 190.384 29.6125V28.6125ZM192.608 29.3778C192.003 28.8578 191.249 28.6125 190.384 28.6125V29.6125C191.05 29.6125 191.562 29.7968 191.956 30.1362L192.608 29.3778ZM193.544 31.2922C193.544 30.5325 193.21 29.8872 192.605 29.3753L191.959 30.1387C192.37 30.4862 192.544 30.8643 192.544 31.2922H193.544ZM195.224 30.7922H193.044V31.7922H195.224V30.7922ZM193.558 28.83C194.342 29.4781 194.724 30.2864 194.724 31.2922H195.724C195.724 29.9854 195.207 28.8953 194.195 28.059L193.558 28.83ZM190.384 27.8312C191.733 27.8312 192.775 28.178 193.556 28.8286L194.196 28.0604C193.196 27.2267 191.909 26.8312 190.384 26.8312V27.8312ZM187.325 28.7971C188.101 28.1648 189.108 27.8312 190.384 27.8312V26.8312C188.926 26.8312 187.682 27.2164 186.693 28.0216L187.325 28.7971ZM186.196 31.0461C186.196 30.1713 186.555 29.4292 187.326 28.7957L186.692 28.023C185.713 28.827 185.196 29.8427 185.196 31.0461H186.196ZM186.568 32.3843C186.327 32.0251 186.196 31.5865 186.196 31.0461H185.196C185.196 31.7556 185.371 32.3952 185.739 32.9423L186.568 32.3843ZM187.811 33.3901C187.222 33.0885 186.818 32.7467 186.565 32.3794L185.742 32.9471C186.114 33.4861 186.663 33.9255 187.355 34.2802L187.811 33.3901ZM190.301 34.19C189.229 33.9603 188.404 33.6903 187.809 33.389L187.357 34.2813C188.059 34.6362 188.976 34.9287 190.092 35.1678L190.301 34.19ZM192.805 35.1226C192.275 34.7252 191.413 34.4266 190.3 34.1898L190.092 35.1679C191.183 35.3999 191.86 35.6638 192.205 35.9226L192.805 35.1226Z" fill="black"/>
<defs>
<filter id="filter0_i" x="0.610229" y="0.959106" width="195.231" height="78.0376" filterUnits="userSpaceOnUse" color-interpolation-filters="sRGB">
<feFlood flood-opacity="0" result="BackgroundImageFix"/>
<feBlend mode="normal" in="SourceGraphic" in2="BackgroundImageFix" result="shape"/>
<feColorMatrix in="SourceAlpha" type="matrix" values="0 0 0 0 0 0 0 0 0 0 0 0 0 0 0 0 0 0 127 0" result="hardAlpha"/>
<feOffset dy="4"/>
<feGaussianBlur stdDeviation="2"/>
<feComposite in2="hardAlpha" operator="arithmetic" k2="-1" k3="1"/>
<feColorMatrix type="matrix" values="0 0 0 0 0 0 0 0 0 0 0 0 0 0 0 0 0 0 0.25 0"/>
<feBlend mode="normal" in2="shape" result="effect1_innerShadow"/>
</filter>
</defs>
</svg>
