<svg width="64" height="74" viewBox="0 0 64 74" fill="none" xmlns="http://www.w3.org/2000/svg">
<path d="M13.1686 0.0415734C10.5752 0.25548 7.86082 1.1111 5.89561 2.33095C2.54727 4.40642 0.622411 7.47048 0.0749198 11.5694C0.0115261 12.0434 0 16.4834 0 36.0241V59.9006L0.155603 60.4788C0.242049 60.7967 0.449519 61.3286 0.616648 61.6639C0.875986 62.1842 0.991247 62.3461 1.44077 62.7913C1.8096 63.167 2.0747 63.3752 2.36286 63.5255C3.06019 63.8839 3.86125 64.092 4.53553 64.092H4.86979V66.5722C4.86979 69.6999 4.94471 70.3127 5.47491 71.4053C6.08003 72.6656 7.0367 73.4634 8.3622 73.8045C9.3304 74.0589 10.7135 74.0069 11.6875 73.6831C12.9323 73.2669 13.9293 72.2031 14.4192 70.7694C14.6958 69.9484 14.7246 69.59 14.7246 66.7456V64.092H31.9562H49.1877V66.7456C49.1877 69.59 49.2166 69.9484 49.4932 70.7694C50.2366 72.9547 51.9425 74.0705 54.3745 73.9606C56.3282 73.8681 57.6652 73.0299 58.4375 71.4053C58.9677 70.2838 59.0426 69.7056 59.0426 66.5838V64.1094L59.4633 64.0747C59.688 64.0516 60.0857 63.9822 60.3393 63.9128C62.1258 63.4445 63.313 62.3172 63.7798 60.6522L63.9124 60.1897L63.9297 36.5155C63.9412 19.8539 63.9297 12.5869 63.8836 11.9741C63.7222 9.71939 63.2669 7.8636 62.4774 6.23907C60.7888 2.77032 57.8612 0.787355 53.4524 0.110948C52.83 0.0184484 51.5506 0.0126672 33.2817 0.0011047C22.5509 -0.00467655 13.5029 0.0126672 13.1686 0.0415734ZM48.329 7.44157C48.7728 7.59189 49.084 7.96767 49.1647 8.45907C49.2511 9.00251 48.8535 9.61532 48.306 9.7772C48.0467 9.85235 46.0699 9.86392 31.9562 9.86392C17.8424 9.86392 15.8657 9.85235 15.6064 9.7772C15.2433 9.66735 14.8802 9.29157 14.7823 8.93314C14.6151 8.32032 14.9667 7.65548 15.5603 7.44735C15.8138 7.36064 48.0639 7.35485 48.329 7.44157ZM55.5617 14.9341C57.1062 15.3561 58.1666 16.3389 58.6853 17.842C59.0253 18.8364 59.0138 18.4433 59.0138 27.0631C59.0138 34.4805 59.008 35.0124 58.91 35.4691C58.6622 36.6311 58.2358 37.452 57.5154 38.1689C56.9564 38.7297 56.3051 39.0824 55.4637 39.2963L54.922 39.435H31.9562H8.99038L8.44865 39.2963C7.60724 39.0824 6.95602 38.7297 6.397 38.1689C5.69391 37.4752 5.28473 36.6889 5.0081 35.5269C4.91013 35.128 4.90437 34.5499 4.88708 27.4389C4.86403 19.4839 4.86979 19.2931 5.10607 18.3334C5.25015 17.7438 5.70543 16.8072 6.04545 16.3967C6.73702 15.5584 7.73979 15.0092 8.87512 14.8416C9.0653 14.8127 19.3985 14.7953 32.1579 14.8011L55.0949 14.8069L55.5617 14.9341ZM11.0305 49.4713C13.768 50.1708 15.3528 53.0556 14.4826 55.767C13.8083 57.883 11.7336 59.3052 9.53787 59.1549C8.19508 59.0681 7.06552 58.5305 6.18377 57.5592C4.67384 55.9 4.4779 53.443 5.70543 51.5352C6.82923 49.795 9.0019 48.9509 11.0305 49.4713ZM54.703 49.3499C55.8153 49.5002 56.795 49.98 57.5788 50.7663C58.6161 51.8011 59.1578 53.3447 58.985 54.7784C58.6853 57.2239 56.8238 58.993 54.3745 59.1549C52.1788 59.3052 50.1041 57.883 49.4298 55.767C48.8765 54.0442 49.2857 52.1942 50.5017 50.8992C51.6198 49.7083 53.1527 49.1475 54.703 49.3499Z" fill="black"/>
</svg>
