<svg width="306" height="51" viewBox="0 0 306 51" fill="none" xmlns="http://www.w3.org/2000/svg">
<g filter="url(#filter0_i)">
<path d="M31.5 38.0938C31.5 36.1562 31.0417 34.5208 30.125 33.1875C29.2292 31.8333 27.8021 30.6458 25.8438 29.625C23.9062 28.5833 20.9688 27.5208 17.0312 26.4375C13.0938 25.3542 10.1354 24.2604 8.15625 23.1562C6.19792 22.0521 4.76042 20.7708 3.84375 19.3125C2.92708 17.8542 2.46875 16.0833 2.46875 14C2.46875 10.6875 3.86458 8.01042 6.65625 5.96875C9.44792 3.90625 13.0833 2.875 17.5625 2.875C20.4792 2.875 23.0938 3.44792 25.4062 4.59375C27.7396 5.71875 29.5417 7.3125 30.8125 9.375C32.0833 11.4167 32.7188 13.7292 32.7188 16.3125H31.0312C31.0312 12.9167 29.7812 10.1146 27.2812 7.90625C24.7812 5.67708 21.5417 4.5625 17.5625 4.5625C13.5625 4.5625 10.3229 5.45833 7.84375 7.25C5.38542 9.02083 4.15625 11.25 4.15625 13.9375C4.15625 16.6667 5.22917 18.8646 7.375 20.5312C9.52083 22.1979 13.0625 23.6771 18 24.9688C22.9375 26.2396 26.5521 27.7188 28.8438 29.4062C31.7604 31.5521 33.2188 34.4271 33.2188 38.0312C33.2188 40.3229 32.5729 42.3542 31.2812 44.125C29.9896 45.875 28.1562 47.2292 25.7812 48.1875C23.4062 49.1458 20.7396 49.625 17.7812 49.625C14.4896 49.625 11.5312 49.0833 8.90625 48C6.28125 46.8958 4.30208 45.3333 2.96875 43.3125C1.65625 41.2917 1 38.9062 1 36.1562H2.6875C2.6875 39.8854 4.08333 42.7812 6.875 44.8438C9.66667 46.9062 13.3021 47.9375 17.7812 47.9375C21.7604 47.9375 25.0417 47.0312 27.625 45.2188C30.2083 43.3854 31.5 41.0104 31.5 38.0938ZM52.7188 47.9375C55.7812 47.9375 58.3021 47.125 60.2812 45.5C62.2812 43.875 63.375 41.625 63.5625 38.75H65.25C65.0833 42.0208 63.8229 44.6562 61.4688 46.6562C59.1146 48.6354 56.1979 49.625 52.7188 49.625C48.4896 49.625 45.125 48.0938 42.625 45.0312C40.1458 41.9688 38.9062 37.8125 38.9062 32.5625V31.4375C38.9062 26.3125 40.1458 22.2188 42.625 19.1562C45.125 16.0938 48.4688 14.5625 52.6562 14.5625C56.2396 14.5625 59.1979 15.6354 61.5312 17.7812C63.8646 19.9271 65.1042 22.7812 65.25 26.3438H63.5625C63.4167 23.3021 62.3438 20.8646 60.3438 19.0312C58.3646 17.1771 55.8021 16.25 52.6562 16.25C48.8854 16.25 45.9271 17.6146 43.7812 20.3438C41.6562 23.0521 40.5938 26.8229 40.5938 31.6562V32.75C40.5938 37.4792 41.6667 41.1979 43.8125 43.9062C45.9792 46.5938 48.9479 47.9375 52.7188 47.9375ZM75.4375 23.0625C76.5417 20.4375 78.1667 18.3646 80.3125 16.8438C82.4583 15.3229 84.8333 14.5625 87.4375 14.5625C91.0625 14.5625 93.75 15.5938 95.5 17.6562C97.2708 19.6979 98.1667 22.7917 98.1875 26.9375V49H96.5V26.875C96.4792 23.25 95.7396 20.5729 94.2812 18.8438C92.8229 17.0938 90.5104 16.2188 87.3438 16.2188C84.4271 16.2188 81.8958 17.2604 79.75 19.3438C77.625 21.4062 76.1875 24.0729 75.4375 27.3438V49H73.75V1H75.4375V23.0625ZM106.25 31.4375C106.25 28.2083 106.865 25.3125 108.094 22.75C109.344 20.1667 111.094 18.1562 113.344 16.7188C115.615 15.2812 118.177 14.5625 121.031 14.5625C123.865 14.5625 126.406 15.2604 128.656 16.6562C130.906 18.0521 132.656 20.0312 133.906 22.5938C135.177 25.1562 135.823 28.0417 135.844 31.25V32.75C135.844 36 135.229 38.9062 134 41.4688C132.771 44.0312 131.021 46.0312 128.75 47.4688C126.5 48.9062 123.948 49.625 121.094 49.625C118.24 49.625 115.677 48.9167 113.406 47.5C111.156 46.0833 109.406 44.1042 108.156 41.5625C106.906 39 106.271 36.125 106.25 32.9375V31.4375ZM107.938 32.75C107.938 35.5625 108.49 38.1458 109.594 40.5C110.719 42.8333 112.271 44.6562 114.25 45.9688C116.25 47.2812 118.531 47.9375 121.094 47.9375C124.948 47.9375 128.083 46.4896 130.5 43.5938C132.938 40.6979 134.156 36.9688 134.156 32.4062V31.4375C134.156 28.6667 133.594 26.1042 132.469 23.75C131.344 21.3958 129.781 19.5625 127.781 18.25C125.802 16.9167 123.552 16.25 121.031 16.25C117.177 16.25 114.031 17.7188 111.594 20.6562C109.156 23.5938 107.938 27.2917 107.938 31.75V32.75ZM141.5 31.4375C141.5 28.2083 142.115 25.3125 143.344 22.75C144.594 20.1667 146.344 18.1562 148.594 16.7188C150.865 15.2812 153.427 14.5625 156.281 14.5625C159.115 14.5625 161.656 15.2604 163.906 16.6562C166.156 18.0521 167.906 20.0312 169.156 22.5938C170.427 25.1562 171.073 28.0417 171.094 31.25V32.75C171.094 36 170.479 38.9062 169.25 41.4688C168.021 44.0312 166.271 46.0312 164 47.4688C161.75 48.9062 159.198 49.625 156.344 49.625C153.49 49.625 150.927 48.9167 148.656 47.5C146.406 46.0833 144.656 44.1042 143.406 41.5625C142.156 39 141.521 36.125 141.5 32.9375V31.4375ZM143.188 32.75C143.188 35.5625 143.74 38.1458 144.844 40.5C145.969 42.8333 147.521 44.6562 149.5 45.9688C151.5 47.2812 153.781 47.9375 156.344 47.9375C160.198 47.9375 163.333 46.4896 165.75 43.5938C168.188 40.6979 169.406 36.9688 169.406 32.4062V31.4375C169.406 28.6667 168.844 26.1042 167.719 23.75C166.594 21.3958 165.031 19.5625 163.031 18.25C161.052 16.9167 158.802 16.25 156.281 16.25C152.427 16.25 149.281 17.7188 146.844 20.6562C144.406 23.5938 143.188 27.2917 143.188 31.75V32.75ZM181.406 49H179.719V1H181.406V49ZM208.688 49V3.5H220.656C225.552 3.5 229.25 4.5 231.75 6.5C234.271 8.47917 235.531 11.3646 235.531 15.1562C235.531 17.9062 234.833 20.1875 233.438 22C232.042 23.8125 230.073 24.9688 227.531 25.4688C230.406 25.8438 232.802 27.0938 234.719 29.2188C236.635 31.3229 237.594 33.7396 237.594 36.4688C237.594 40.3438 236.333 43.4062 233.812 45.6562C231.312 47.8854 227.823 49 223.344 49H208.688ZM210.375 26.5312V47.3125H223.531C227.385 47.3125 230.406 46.3646 232.594 44.4688C234.802 42.5521 235.906 39.9062 235.906 36.5312C235.906 33.6562 234.844 31.2917 232.719 29.4375C230.594 27.5625 227.75 26.5938 224.188 26.5312H210.375ZM210.375 24.8438H221.281C225.427 24.8438 228.552 24.0521 230.656 22.4688C232.76 20.8646 233.812 18.3854 233.812 15.0312C233.812 8.57292 229.552 5.29167 221.031 5.1875H210.375V24.8438ZM269.094 49V43.5312C268.094 45.4062 266.635 46.8958 264.719 48C262.802 49.0833 260.375 49.625 257.438 49.625C253.75 49.625 250.979 48.5521 249.125 46.4062C247.292 44.2396 246.354 41.0938 246.312 36.9688V15.1875H248V37.0312C248.042 40.6146 248.854 43.3333 250.438 45.1875C252.021 47.0208 254.333 47.9375 257.375 47.9375C260.604 47.9375 263.229 47.1771 265.25 45.6562C267.271 44.1354 268.552 41.9062 269.094 38.9688V15.1875H270.812V49H269.094ZM302.344 40.7188C302.344 36.6146 298.844 33.8229 291.844 32.3438C287.635 31.4479 284.708 30.3021 283.062 28.9062C281.417 27.4896 280.594 25.5521 280.594 23.0938C280.594 20.6146 281.635 18.5729 283.719 16.9688C285.823 15.3646 288.552 14.5625 291.906 14.5625C295.552 14.5625 298.479 15.4375 300.688 17.1875C302.896 18.9167 304 21.2604 304 24.2188H302.281C302.281 21.9479 301.323 20.0521 299.406 18.5312C297.49 17.0104 294.99 16.25 291.906 16.25C288.948 16.25 286.604 16.8958 284.875 18.1875C283.146 19.4792 282.281 21.0938 282.281 23.0312C282.281 24.5521 282.604 25.75 283.25 26.625C283.896 27.4792 284.948 28.2604 286.406 28.9688C287.865 29.6562 289.99 30.3229 292.781 30.9688C295.573 31.6146 297.781 32.375 299.406 33.25C301.031 34.125 302.208 35.1667 302.938 36.375C303.667 37.5625 304.031 39.0208 304.031 40.75C304.031 43.4167 302.938 45.5625 300.75 47.1875C298.562 48.8125 295.698 49.625 292.156 49.625C288.365 49.625 285.302 48.7708 282.969 47.0625C280.656 45.3333 279.5 43.1146 279.5 40.4062H281.188C281.354 42.7812 282.396 44.6354 284.312 45.9688C286.25 47.2812 288.865 47.9375 292.156 47.9375C295.177 47.9375 297.625 47.2396 299.5 45.8438C301.396 44.4271 302.344 42.7188 302.344 40.7188Z" fill="black"/>
</g>
<path d="M30.125 33.1875L29.291 33.7392L29.2959 33.7467L29.301 33.754L30.125 33.1875ZM25.8438 29.625L25.3702 30.5058L25.3815 30.5118L25.8438 29.625ZM8.15625 23.1562L7.6651 24.0273L7.66905 24.0295L8.15625 23.1562ZM6.65625 5.96875L7.24658 6.77593L7.25047 6.77305L6.65625 5.96875ZM25.4062 4.59375L24.9622 5.48984L24.972 5.49452L25.4062 4.59375ZM30.8125 9.375L29.9611 9.89958L29.9635 9.90344L30.8125 9.375ZM32.7188 16.3125V17.3125H33.7188V16.3125H32.7188ZM31.0312 16.3125H30.0312V17.3125H31.0312V16.3125ZM27.2812 7.90625L26.6157 8.65264L26.6192 8.65572L27.2812 7.90625ZM7.84375 7.25L8.42824 8.0614L8.42949 8.0605L7.84375 7.25ZM18 24.9688L17.7469 25.9362L17.7507 25.9372L18 24.9688ZM28.8438 29.4062L28.2508 30.2115L28.2511 30.2117L28.8438 29.4062ZM31.2812 44.125L32.0858 44.7189L32.0892 44.7143L31.2812 44.125ZM8.90625 48L8.51851 48.9218L8.52476 48.9244L8.90625 48ZM2.96875 43.3125L2.13009 43.8572L2.13406 43.8632L2.96875 43.3125ZM1 36.1562V35.1562H0V36.1562H1ZM2.6875 36.1562H3.6875V35.1562H2.6875V36.1562ZM27.625 45.2188L28.1994 46.0374L28.2037 46.0343L27.625 45.2188ZM32.5 38.0938C32.5 35.9947 32.0014 34.1517 30.949 32.621L29.301 33.754C30.0819 34.89 30.5 36.3178 30.5 38.0938H32.5ZM30.959 32.6358C29.942 31.0984 28.3628 29.8104 26.306 28.7382L25.3815 30.5118C27.2413 31.4812 28.5163 32.5683 29.291 33.7392L30.959 32.6358ZM26.3173 28.7442C24.2797 27.6488 21.256 26.5627 17.2965 25.4733L16.766 27.4017C20.6815 28.479 23.5328 29.5179 25.3702 30.5058L26.3173 28.7442ZM17.2965 25.4733C13.3852 24.3972 10.5178 23.3287 8.64345 22.283L7.66905 24.0295C9.753 25.1922 12.8023 26.3111 16.766 27.4017L17.2965 25.4733ZM8.64739 22.2852C6.79107 21.2385 5.49566 20.0614 4.69039 18.7803L2.99711 19.8447C4.02517 21.4802 5.60476 22.8656 7.66511 24.0273L8.64739 22.2852ZM4.69039 18.7803C3.89314 17.512 3.46875 15.9347 3.46875 14H1.46875C1.46875 16.2319 1.96103 18.1964 2.99711 19.8447L4.69039 18.7803ZM3.46875 14C3.46875 11.0227 4.69903 8.63904 7.24657 6.77592L6.06593 5.16158C3.03014 7.38179 1.46875 10.3523 1.46875 14H3.46875ZM7.25047 6.77305C9.82596 4.87026 13.2349 3.875 17.5625 3.875V1.875C12.9317 1.875 9.06987 2.94224 6.06203 5.16445L7.25047 6.77305ZM17.5625 3.875C20.3453 3.875 22.8048 4.42077 24.9623 5.48979L25.8502 3.69771C23.3827 2.47507 20.613 1.875 17.5625 1.875V3.875ZM24.972 5.49452C27.1456 6.54255 28.7975 8.01113 29.9611 9.89958L31.6639 8.85042C30.2858 6.61387 28.3335 4.89495 25.8405 3.69298L24.972 5.49452ZM29.9635 9.90344C31.1283 11.7747 31.7188 13.9015 31.7188 16.3125H33.7188C33.7188 13.5568 33.0384 11.0586 31.6615 8.84656L29.9635 9.90344ZM32.7188 15.3125H31.0312V17.3125H32.7188V15.3125ZM32.0312 16.3125C32.0312 12.6359 30.6626 9.55882 27.9433 7.15678L26.6192 8.65572C28.8999 10.6704 30.0312 13.1975 30.0312 16.3125H32.0312ZM27.9468 7.15987C25.2302 4.73761 21.7384 3.5625 17.5625 3.5625V5.5625C21.3449 5.5625 24.3323 6.61655 26.6157 8.65263L27.9468 7.15987ZM17.5625 3.5625C13.4166 3.5625 9.95333 4.49163 7.25801 6.4395L8.42949 8.0605C10.6925 6.42504 13.7084 5.5625 17.5625 5.5625V3.5625ZM7.25926 6.4386C4.57839 8.36974 3.15625 10.8839 3.15625 13.9375H5.15625C5.15625 11.6161 6.19245 9.67193 8.42824 8.0614L7.25926 6.4386ZM3.15625 13.9375C3.15625 16.9739 4.37058 19.4639 6.76159 21.321L7.98841 19.7415C6.08775 18.2652 5.15625 16.3595 5.15625 13.9375H3.15625ZM6.76159 21.321C9.07117 23.1149 12.7733 24.6351 17.7469 25.9362L18.2531 24.0013C13.3517 22.7191 9.97049 21.281 7.98841 19.7415L6.76159 21.321ZM17.7507 25.9372C22.6467 27.1973 26.1137 28.6378 28.2508 30.2115L29.4367 28.601C26.9905 26.7997 23.2283 25.2818 18.2493 24.0003L17.7507 25.9372ZM28.2511 30.2117C30.9131 32.1702 32.2188 34.7468 32.2188 38.0312H34.2188C34.2188 34.1073 32.6078 30.934 29.4364 28.6008L28.2511 30.2117ZM32.2188 38.0312C32.2188 40.1214 31.6342 41.9441 30.4733 43.5357L32.0892 44.7143C33.5116 42.7642 34.2188 40.5244 34.2188 38.0312H32.2188ZM30.4767 43.5311C29.3131 45.1077 27.6413 46.3586 25.4071 47.2601L26.1554 49.1149C28.6712 48.0997 30.6661 46.6423 32.0858 44.7189L30.4767 43.5311ZM25.4071 47.2601C23.1679 48.1637 20.631 48.625 17.7812 48.625V50.625C20.8482 50.625 23.6446 50.128 26.1554 49.1149L25.4071 47.2601ZM17.7812 48.625C14.5999 48.625 11.7741 48.1017 9.28774 47.0756L8.52476 48.9244C11.2884 50.0649 14.3793 50.625 17.7812 50.625V48.625ZM9.29398 47.0782C6.81856 46.037 5.00969 44.59 3.80344 42.7618L2.13406 43.8632C3.59448 46.0767 5.74394 47.7547 8.51852 48.9218L9.29398 47.0782ZM3.80739 42.7678C2.61451 40.9312 2 38.741 2 36.1562H0C0 39.0715 0.697988 41.6522 2.13011 43.8572L3.80739 42.7678ZM1 37.1562H2.6875V35.1562H1V37.1562ZM1.6875 36.1562C1.6875 40.1752 3.21257 43.3812 6.28078 45.6481L7.46922 44.0394C4.9541 42.1813 3.6875 39.5956 3.6875 36.1562H1.6875ZM6.28078 45.6481C9.28862 47.8703 13.1505 48.9375 17.7812 48.9375V46.9375C13.4537 46.9375 10.0447 45.9422 7.46922 44.0394L6.28078 45.6481ZM17.7812 48.9375C21.9121 48.9375 25.4085 47.9955 28.1993 46.0374L27.0507 44.4001C24.6749 46.067 21.6087 46.9375 17.7812 46.9375V48.9375ZM28.2037 46.0343C31.0247 44.0323 32.5 41.3658 32.5 38.0938H30.5C30.5 40.6551 29.392 42.7385 27.0463 44.4032L28.2037 46.0343ZM60.2812 45.5L59.6506 44.7239L59.6467 44.7271L60.2812 45.5ZM63.5625 38.75V37.75H62.6256L62.5646 38.6849L63.5625 38.75ZM65.25 38.75L66.2487 38.8009L66.3023 37.75H65.25V38.75ZM61.4688 46.6562L62.1123 47.4217L62.1162 47.4184L61.4688 46.6562ZM42.625 45.0312L41.8477 45.6605L41.8503 45.6636L42.625 45.0312ZM42.625 19.1562L41.8503 18.5239L41.8478 18.5271L42.625 19.1562ZM61.5312 17.7812L60.8543 18.5173L61.5312 17.7812ZM65.25 26.3438V27.3438H66.2918L66.2492 26.3028L65.25 26.3438ZM63.5625 26.3438L62.5636 26.3916L62.6093 27.3438H63.5625V26.3438ZM60.3438 19.0312L59.66 19.7611L59.668 19.7684L60.3438 19.0312ZM43.7812 20.3438L42.9951 19.7257L42.9945 19.7265L43.7812 20.3438ZM43.8125 43.9062L43.0287 44.5273L43.034 44.5339L43.8125 43.9062ZM52.7188 48.9375C55.9655 48.9375 58.7244 48.0721 60.9158 46.2729L59.6467 44.7271C57.8798 46.1779 55.597 46.9375 52.7188 46.9375V48.9375ZM60.9118 46.2761C63.1546 44.4539 64.3571 41.9316 64.5604 38.8151L62.5646 38.6849C62.3929 41.3184 61.4079 43.2961 59.6507 44.7239L60.9118 46.2761ZM63.5625 39.75H65.25V37.75H63.5625V39.75ZM64.2513 38.6991C64.0977 41.7132 62.9516 44.0844 60.8213 45.8941L62.1162 47.4184C64.6943 45.2281 66.069 42.3285 66.2487 38.8009L64.2513 38.6991ZM60.8252 45.8908C58.6749 47.6986 55.9953 48.625 52.7188 48.625V50.625C56.4005 50.625 59.5543 49.5722 62.1123 47.4217L60.8252 45.8908ZM52.7188 48.625C48.7659 48.625 45.6951 47.2107 43.3997 44.3989L41.8503 45.6636C44.5549 48.9768 48.2133 50.625 52.7188 50.625V48.625ZM43.4022 44.4021C41.1089 41.569 39.9062 37.6598 39.9062 32.5625H37.9062C37.9062 37.9652 39.1828 42.3685 41.8478 45.6604L43.4022 44.4021ZM39.9062 32.5625V31.4375H37.9062V32.5625H39.9062ZM39.9062 31.4375C39.9062 26.4719 41.1056 22.6224 43.4022 19.7854L41.8478 18.5271C39.186 21.8151 37.9062 26.1531 37.9062 31.4375H39.9062ZM43.3997 19.7886C45.6972 16.9742 48.7486 15.5625 52.6562 15.5625V13.5625C48.1889 13.5625 44.5528 15.2133 41.8503 18.5239L43.3997 19.7886ZM52.6562 15.5625C56.024 15.5625 58.7299 16.5636 60.8543 18.5173L62.2082 17.0452C59.6659 14.7072 56.4551 13.5625 52.6562 13.5625V15.5625ZM60.8543 18.5173C62.9671 20.4603 64.1144 23.0513 64.2508 26.3847L66.2492 26.3028C66.0939 22.5112 64.7621 19.3939 62.2082 17.0452L60.8543 18.5173ZM65.25 25.3438H63.5625V27.3438H65.25V25.3438ZM64.5614 26.2959C64.4046 23.026 63.2383 20.328 61.0195 18.2941L59.668 19.7684C61.4492 21.4011 62.4288 23.5782 62.5636 26.3916L64.5614 26.2959ZM61.0274 18.3015C58.8335 16.2461 56.0125 15.25 52.6562 15.25V17.25C55.5916 17.25 57.8957 18.1081 59.6601 19.761L61.0274 18.3015ZM52.6562 15.25C48.609 15.25 45.3486 16.7325 42.9951 19.7257L44.5674 20.9618C46.5056 18.4967 49.1618 17.25 52.6562 17.25V15.25ZM42.9945 19.7265C40.6851 22.6698 39.5938 26.6877 39.5938 31.6562H41.5938C41.5938 26.9581 42.6274 23.4343 44.568 20.961L42.9945 19.7265ZM39.5938 31.6562V32.75H41.5938V31.6562H39.5938ZM39.5938 32.75C39.5938 37.6223 40.6991 41.587 43.0287 44.5273L44.5963 43.2852C42.6342 40.8088 41.5938 37.336 41.5938 32.75H39.5938ZM43.034 44.5339C45.4096 47.4806 48.6773 48.9375 52.7188 48.9375V46.9375C49.2185 46.9375 46.5487 45.7069 44.591 43.2786L43.034 44.5339ZM75.4375 23.0625H74.4375L76.3593 23.4502L75.4375 23.0625ZM80.3125 16.8438L80.8907 17.6596L80.3125 16.8438ZM95.5 17.6562L94.7374 18.3033L94.7446 18.3115L95.5 17.6562ZM98.1875 26.9375H99.1875L99.1875 26.9325L98.1875 26.9375ZM98.1875 49V50H99.1875V49H98.1875ZM96.5 49H95.5V50H96.5V49ZM96.5 26.875L97.5 26.875L97.5 26.8693L96.5 26.875ZM94.2812 18.8438L93.513 19.4839L93.5168 19.4885L94.2812 18.8438ZM79.75 19.3438L80.4465 20.0613L80.4466 20.0612L79.75 19.3438ZM75.4375 27.3438L74.4628 27.1203L74.4375 27.2306V27.3438H75.4375ZM75.4375 49V50H76.4375V49H75.4375ZM73.75 49H72.75V50H73.75V49ZM73.75 1V0H72.75V1H73.75ZM75.4375 1H76.4375V0H75.4375V1ZM76.3593 23.4502C77.3973 20.9824 78.9097 19.0637 80.8907 17.6596L79.7343 16.0279C77.4236 17.6655 75.686 19.8926 74.5157 22.6748L76.3593 23.4502ZM80.8907 17.6596C82.8694 16.2573 85.0427 15.5625 87.4375 15.5625V13.5625C84.624 13.5625 82.0473 14.3885 79.7343 16.0279L80.8907 17.6596ZM87.4375 15.5625C90.8746 15.5625 93.2367 16.5344 94.7375 18.3032L96.2625 17.0093C94.2633 14.6531 91.2504 13.5625 87.4375 13.5625V15.5625ZM94.7446 18.3115C96.2939 20.0978 97.1673 22.9134 97.1875 26.9425L99.1875 26.9325C99.1661 22.6699 98.2477 19.298 96.2554 17.001L94.7446 18.3115ZM97.1875 26.9375V49H99.1875V26.9375H97.1875ZM98.1875 48H96.5V50H98.1875V48ZM97.5 49V26.875H95.5V49H97.5ZM97.5 26.8693C97.4786 23.1424 96.7224 20.1872 95.0457 18.199L93.5168 19.4885C94.7567 20.9586 95.4798 23.3576 95.5 26.8807L97.5 26.8693ZM95.0495 18.2036C93.3352 16.1464 90.6858 15.2188 87.3438 15.2188V17.2188C90.335 17.2188 92.3107 18.0411 93.513 19.4839L95.0495 18.2036ZM87.3438 15.2188C84.1597 15.2188 81.3806 16.3669 79.0534 18.6263L80.4466 20.0612C82.4111 18.1539 84.6945 17.2188 87.3438 17.2188V15.2188ZM79.0535 18.6262C76.7722 20.8404 75.25 23.6871 74.4628 27.1203L76.4122 27.5672C77.125 24.4587 78.4778 21.9721 80.4465 20.0613L79.0535 18.6262ZM74.4375 27.3438V49H76.4375V27.3438H74.4375ZM75.4375 48H73.75V50H75.4375V48ZM74.75 49V1H72.75V49H74.75ZM73.75 2H75.4375V0H73.75V2ZM74.4375 1V23.0625H76.4375V1H74.4375ZM108.094 22.75L107.194 22.3144L107.192 22.3175L108.094 22.75ZM113.344 16.7188L112.809 15.8738L112.805 15.8761L113.344 16.7188ZM128.656 16.6562L128.129 17.506L128.656 16.6562ZM133.906 22.5938L133.007 23.0322L133.01 23.038L133.906 22.5938ZM135.844 31.25L136.844 31.25L136.844 31.2435L135.844 31.25ZM128.75 47.4688L128.215 46.6238L128.212 46.6261L128.75 47.4688ZM113.406 47.5L112.873 48.3462L112.877 48.3484L113.406 47.5ZM108.156 41.5625L107.257 42.0009L107.259 42.0038L108.156 41.5625ZM106.25 32.9375L105.25 32.9375L105.25 32.944L106.25 32.9375ZM109.594 40.5L108.688 40.9247L108.693 40.9343L109.594 40.5ZM114.25 45.9688L113.697 46.8022L113.701 46.8048L114.25 45.9688ZM130.5 43.5938L129.735 42.9498L129.732 42.953L130.5 43.5938ZM127.781 18.25L127.222 19.0794L127.233 19.086L127.781 18.25ZM107.25 31.4375C107.25 28.3376 107.839 25.5927 108.995 23.1825L107.192 22.3175C105.89 25.0323 105.25 28.0791 105.25 31.4375H107.25ZM108.994 23.1856C110.17 20.7558 111.8 18.8918 113.882 17.5614L112.805 15.8761C110.388 17.4207 108.518 19.5775 107.194 22.3144L108.994 23.1856ZM113.879 17.5637C115.979 16.2338 118.354 15.5625 121.031 15.5625V13.5625C118 13.5625 115.25 14.3287 112.809 15.8738L113.879 17.5637ZM121.031 15.5625C123.692 15.5625 126.049 16.2153 128.129 17.506L129.183 15.8065C126.764 14.3055 124.037 13.5625 121.031 13.5625V15.5625ZM128.129 17.506C130.207 18.7948 131.834 20.6255 133.007 23.0322L134.805 22.1553C133.479 19.437 131.606 17.3093 129.183 15.8065L128.129 17.506ZM133.01 23.038C134.206 25.4486 134.824 28.1815 134.844 31.2565L136.844 31.2435C136.822 27.9019 136.148 24.8639 134.802 22.1495L133.01 23.038ZM134.844 31.25V32.75H136.844V31.25H134.844ZM134.844 32.75C134.844 35.8718 134.254 38.6269 133.098 41.0363L134.902 41.9012C136.204 39.1856 136.844 36.1282 136.844 32.75H134.844ZM133.098 41.0363C131.945 43.4398 130.318 45.2925 128.215 46.6238L129.285 48.3137C131.723 46.77 133.596 44.6227 134.902 41.9012L133.098 41.0363ZM128.212 46.6261C126.134 47.9537 123.771 48.625 121.094 48.625V50.625C124.125 50.625 126.866 49.8588 129.288 48.3114L128.212 46.6261ZM121.094 48.625C118.414 48.625 116.037 47.9625 113.936 46.6516L112.877 48.3484C115.317 49.8708 118.065 50.625 121.094 50.625V48.625ZM113.939 46.6538C111.856 45.3422 110.227 43.508 109.054 41.1212L107.259 42.0038C108.585 44.7003 110.456 46.8244 112.873 48.3462L113.939 46.6538ZM109.055 41.1241C107.878 38.7113 107.27 35.9865 107.25 32.931L105.25 32.944C105.272 36.2635 105.934 39.2887 107.257 42.0009L109.055 41.1241ZM107.25 32.9375V31.4375H105.25V32.9375H107.25ZM106.938 32.75C106.938 35.6971 107.517 38.427 108.688 40.9246L110.499 40.0754C109.462 37.8647 108.938 35.4279 108.938 32.75H106.938ZM108.693 40.9343C109.889 43.4144 111.555 45.3814 113.697 46.8021L114.803 45.1354C112.987 43.9311 111.549 42.2523 110.495 40.0657L108.693 40.9343ZM113.701 46.8048C115.876 48.232 118.351 48.9375 121.094 48.9375V46.9375C118.712 46.9375 116.624 46.3305 114.799 45.1327L113.701 46.8048ZM121.094 48.9375C125.237 48.9375 128.656 47.3637 131.268 44.2345L129.732 42.953C127.51 45.6155 124.659 46.9375 121.094 46.9375V48.9375ZM131.265 44.2377C133.884 41.1265 135.156 37.1539 135.156 32.4062H133.156C133.156 36.7836 131.991 40.2694 129.735 42.9498L131.265 44.2377ZM135.156 32.4062V31.4375H133.156V32.4062H135.156ZM135.156 31.4375C135.156 28.5269 134.564 25.8159 133.371 23.3188L131.566 24.1812C132.623 26.3924 133.156 28.8064 133.156 31.4375H135.156ZM133.371 23.3188C132.175 20.8154 130.496 18.8356 128.33 17.414L127.233 19.086C129.066 20.2894 130.513 21.9763 131.566 24.1812L133.371 23.3188ZM128.34 17.4206C126.186 15.9697 123.739 15.25 121.031 15.25V17.25C123.365 17.25 125.418 17.8637 127.223 19.0794L128.34 17.4206ZM121.031 15.25C116.883 15.25 113.454 16.8487 110.824 20.0177L112.363 21.2948C114.609 18.5888 117.471 17.25 121.031 17.25V15.25ZM110.824 20.0177C108.213 23.164 106.938 27.0996 106.938 31.75H108.938C108.938 27.4837 110.099 24.0235 112.363 21.2948L110.824 20.0177ZM106.938 31.75V32.75H108.938V31.75H106.938ZM143.344 22.75L142.444 22.3144L142.442 22.3175L143.344 22.75ZM148.594 16.7188L148.059 15.8738L148.055 15.8761L148.594 16.7188ZM163.906 16.6562L163.379 17.506L163.906 16.6562ZM169.156 22.5938L168.257 23.0322L168.26 23.038L169.156 22.5938ZM171.094 31.25L172.094 31.25L172.094 31.2435L171.094 31.25ZM164 47.4688L163.465 46.6238L163.462 46.6261L164 47.4688ZM148.656 47.5L148.123 48.3462L148.127 48.3484L148.656 47.5ZM143.406 41.5625L142.507 42.0009L142.509 42.0038L143.406 41.5625ZM141.5 32.9375L140.5 32.9375L140.5 32.944L141.5 32.9375ZM144.844 40.5L143.938 40.9247L143.943 40.9343L144.844 40.5ZM149.5 45.9688L148.947 46.8022L148.951 46.8048L149.5 45.9688ZM165.75 43.5938L164.985 42.9498L164.982 42.953L165.75 43.5938ZM163.031 18.25L162.472 19.0794L162.483 19.086L163.031 18.25ZM142.5 31.4375C142.5 28.3376 143.089 25.5927 144.245 23.1825L142.442 22.3175C141.14 25.0323 140.5 28.0791 140.5 31.4375H142.5ZM144.244 23.1856C145.42 20.7558 147.05 18.8918 149.132 17.5614L148.055 15.8761C145.638 17.4207 143.768 19.5775 142.444 22.3144L144.244 23.1856ZM149.129 17.5637C151.229 16.2338 153.604 15.5625 156.281 15.5625V13.5625C153.25 13.5625 150.5 14.3287 148.059 15.8738L149.129 17.5637ZM156.281 15.5625C158.942 15.5625 161.299 16.2153 163.379 17.506L164.433 15.8065C162.014 14.3055 159.287 13.5625 156.281 13.5625V15.5625ZM163.379 17.506C165.457 18.7948 167.084 20.6255 168.257 23.0322L170.055 22.1553C168.729 19.437 166.856 17.3093 164.433 15.8065L163.379 17.506ZM168.26 23.038C169.456 25.4486 170.074 28.1815 170.094 31.2565L172.094 31.2435C172.072 27.9019 171.398 24.8639 170.052 22.1495L168.26 23.038ZM170.094 31.25V32.75H172.094V31.25H170.094ZM170.094 32.75C170.094 35.8718 169.504 38.6269 168.348 41.0363L170.152 41.9012C171.454 39.1856 172.094 36.1282 172.094 32.75H170.094ZM168.348 41.0363C167.195 43.4398 165.568 45.2925 163.465 46.6238L164.535 48.3137C166.973 46.77 168.846 44.6227 170.152 41.9012L168.348 41.0363ZM163.462 46.6261C161.384 47.9537 159.021 48.625 156.344 48.625V50.625C159.375 50.625 162.116 49.8588 164.538 48.3114L163.462 46.6261ZM156.344 48.625C153.664 48.625 151.287 47.9625 149.186 46.6516L148.127 48.3484C150.567 49.8708 153.315 50.625 156.344 50.625V48.625ZM149.189 46.6538C147.106 45.3422 145.477 43.508 144.304 41.1212L142.509 42.0038C143.835 44.7003 145.706 46.8244 148.123 48.3462L149.189 46.6538ZM144.305 41.1241C143.128 38.7113 142.52 35.9865 142.5 32.931L140.5 32.944C140.522 36.2635 141.184 39.2887 142.507 42.0009L144.305 41.1241ZM142.5 32.9375V31.4375H140.5V32.9375H142.5ZM142.188 32.75C142.188 35.6971 142.767 38.427 143.938 40.9246L145.749 40.0754C144.712 37.8647 144.188 35.4279 144.188 32.75H142.188ZM143.943 40.9343C145.139 43.4144 146.805 45.3814 148.947 46.8021L150.053 45.1354C148.237 43.9311 146.799 42.2523 145.745 40.0657L143.943 40.9343ZM148.951 46.8048C151.126 48.232 153.601 48.9375 156.344 48.9375V46.9375C153.962 46.9375 151.874 46.3305 150.049 45.1327L148.951 46.8048ZM156.344 48.9375C160.487 48.9375 163.906 47.3637 166.518 44.2345L164.982 42.953C162.76 45.6155 159.909 46.9375 156.344 46.9375V48.9375ZM166.515 44.2377C169.134 41.1265 170.406 37.1539 170.406 32.4062H168.406C168.406 36.7836 167.241 40.2694 164.985 42.9498L166.515 44.2377ZM170.406 32.4062V31.4375H168.406V32.4062H170.406ZM170.406 31.4375C170.406 28.5269 169.814 25.8159 168.621 23.3188L166.816 24.1812C167.873 26.3924 168.406 28.8064 168.406 31.4375H170.406ZM168.621 23.3188C167.425 20.8154 165.746 18.8356 163.58 17.414L162.483 19.086C164.316 20.2894 165.763 21.9763 166.816 24.1812L168.621 23.3188ZM163.59 17.4206C161.436 15.9697 158.989 15.25 156.281 15.25V17.25C158.615 17.25 160.668 17.8637 162.473 19.0794L163.59 17.4206ZM156.281 15.25C152.133 15.25 148.704 16.8487 146.074 20.0177L147.613 21.2948C149.859 18.5888 152.721 17.25 156.281 17.25V15.25ZM146.074 20.0177C143.463 23.164 142.188 27.0996 142.188 31.75H144.188C144.188 27.4837 145.349 24.0235 147.613 21.2948L146.074 20.0177ZM142.188 31.75V32.75H144.188V31.75H142.188ZM181.406 49V50H182.406V49H181.406ZM179.719 49H178.719V50H179.719V49ZM179.719 1V0H178.719V1H179.719ZM181.406 1H182.406V0H181.406V1ZM181.406 48H179.719V50H181.406V48ZM180.719 49V1H178.719V49H180.719ZM179.719 2H181.406V0H179.719V2ZM180.406 1V49H182.406V1H180.406ZM208.688 49H207.688V50H208.688V49ZM208.688 3.5V2.5H207.688V3.5H208.688ZM231.75 6.5L231.125 7.2809L231.132 7.28654L231.75 6.5ZM233.438 22L232.645 21.3898L233.438 22ZM227.531 25.4688L227.338 24.4876L227.402 26.4604L227.531 25.4688ZM234.719 29.2188L233.976 29.8885L233.979 29.8922L234.719 29.2188ZM233.812 45.6562L234.478 46.4026L234.478 46.4023L233.812 45.6562ZM210.375 26.5312V25.5312H209.375V26.5312H210.375ZM210.375 47.3125H209.375V48.3125H210.375V47.3125ZM232.594 44.4688L233.249 45.2244L233.249 45.224L232.594 44.4688ZM232.719 29.4375L232.057 30.1873L232.061 30.191L232.719 29.4375ZM224.188 26.5312L224.205 25.5314L224.196 25.5312H224.188V26.5312ZM210.375 24.8438H209.375V25.8438H210.375V24.8438ZM230.656 22.4688L231.258 23.2678L231.263 23.264L230.656 22.4688ZM221.031 5.1875L221.043 4.1875H221.031V5.1875ZM210.375 5.1875V4.1875H209.375V5.1875H210.375ZM209.688 49V3.5H207.688V49H209.688ZM208.688 4.5H220.656V2.5H208.688V4.5ZM220.656 4.5C225.439 4.5 228.875 5.48058 231.125 7.28087L232.375 5.71913C229.625 3.51942 225.665 2.5 220.656 2.5V4.5ZM231.132 7.28654C233.366 9.0404 234.531 11.6086 234.531 15.1562H236.531C236.531 11.1205 235.175 7.91794 232.368 5.71346L231.132 7.28654ZM234.531 15.1562C234.531 17.7315 233.881 19.7855 232.645 21.3898L234.23 22.6102C235.786 20.5895 236.531 18.081 236.531 15.1562H234.531ZM232.645 21.3898C231.417 22.9845 229.675 24.0278 227.338 24.4876L227.724 26.4499C230.47 25.9097 232.666 24.6405 234.23 22.6102L232.645 21.3898ZM227.402 26.4604C230.044 26.805 232.221 27.943 233.976 29.8885L235.461 28.549C233.383 26.2445 230.768 24.8825 227.661 24.4771L227.402 26.4604ZM233.979 29.8922C235.736 31.8208 236.594 34.0002 236.594 36.4688H238.594C238.594 33.479 237.535 30.825 235.458 28.5453L233.979 29.8922ZM236.594 36.4688C236.594 40.1051 235.423 42.8787 233.147 44.9102L234.478 46.4023C237.244 43.9338 238.594 40.5824 238.594 36.4688H236.594ZM233.147 44.9099C230.884 46.9273 227.661 48 223.344 48V50C227.984 50 231.741 48.8435 234.478 46.4026L233.147 44.9099ZM223.344 48H208.688V50H223.344V48ZM209.375 26.5312V47.3125H211.375V26.5312H209.375ZM210.375 48.3125H223.531V46.3125H210.375V48.3125ZM223.531 48.3125C227.545 48.3125 230.826 47.3237 233.249 45.2244L231.939 43.7131C229.986 45.4055 227.226 46.3125 223.531 46.3125V48.3125ZM233.249 45.224C235.711 43.0871 236.906 40.1465 236.906 36.5312H234.906C234.906 39.666 233.893 42.017 231.938 43.7135L233.249 45.224ZM236.906 36.5312C236.906 33.3738 235.724 30.7323 233.376 28.684L232.061 30.191C233.964 31.8511 234.906 33.9387 234.906 36.5312H236.906ZM233.38 28.6877C231.035 26.6183 227.942 25.597 224.205 25.5314L224.17 27.5311C227.558 27.5905 230.152 28.5067 232.057 30.1873L233.38 28.6877ZM224.188 25.5312H210.375V27.5312H224.188V25.5312ZM210.375 25.8438H221.281V23.8438H210.375V25.8438ZM221.281 25.8438C225.528 25.8438 228.906 25.0374 231.258 23.2678L230.055 21.6697C228.198 23.0668 225.326 23.8438 221.281 23.8438V25.8438ZM231.263 23.264C233.68 21.4212 234.812 18.6055 234.812 15.0312H232.812C232.812 18.1653 231.841 20.308 230.05 21.6735L231.263 23.264ZM234.812 15.0312C234.812 11.5616 233.654 8.80308 231.227 6.9343C228.851 5.10428 225.403 4.24087 221.043 4.18757L221.019 6.18743C225.181 6.2383 228.123 7.0676 230.007 8.51883C231.841 9.93129 232.812 12.0426 232.812 15.0312H234.812ZM221.031 4.1875H210.375V6.1875H221.031V4.1875ZM209.375 5.1875V24.8438H211.375V5.1875H209.375ZM269.094 49H268.094V50H269.094V49ZM269.094 43.5312H270.094L268.211 43.0607L269.094 43.5312ZM264.719 48L265.211 48.8706L265.218 48.8665L264.719 48ZM249.125 46.4062L248.362 47.0522L248.368 47.0601L249.125 46.4062ZM246.312 36.9688L245.312 36.9688L245.313 36.9789L246.312 36.9688ZM246.312 15.1875V14.1875H245.312V15.1875H246.312ZM248 15.1875H249V14.1875H248V15.1875ZM248 37.0312L247 37.0313L247 37.0429L248 37.0312ZM250.438 45.1875L249.677 45.8369L249.681 45.8411L250.438 45.1875ZM269.094 38.9688L270.077 39.1501L270.094 39.0602V38.9688H269.094ZM269.094 15.1875V14.1875H268.094V15.1875H269.094ZM270.812 15.1875H271.812V14.1875H270.812V15.1875ZM270.812 49V50H271.812V49H270.812ZM270.094 49V43.5312H268.094V49H270.094ZM268.211 43.0607C267.303 44.7635 265.981 46.1188 264.22 47.1335L265.218 48.8665C267.29 47.6729 268.884 46.049 269.976 44.0018L268.211 43.0607ZM264.227 47.1294C262.502 48.1042 260.258 48.625 257.438 48.625V50.625C260.492 50.625 263.102 50.0625 265.211 48.8706L264.227 47.1294ZM257.438 48.625C253.947 48.625 251.492 47.6166 249.882 45.7524L248.368 47.0601C250.466 49.4876 253.553 50.625 257.438 50.625V48.625ZM249.888 45.7603C248.261 43.8369 247.353 40.9536 247.312 36.9586L245.313 36.9789C245.356 41.2339 246.322 44.6423 248.362 47.0522L249.888 45.7603ZM247.312 36.9688V15.1875H245.312V36.9688H247.312ZM246.312 16.1875H248V14.1875H246.312V16.1875ZM247 15.1875V37.0312H249V15.1875H247ZM247 37.0429C247.043 40.7535 247.884 43.7376 249.677 45.8369L251.198 44.5381C249.824 42.9291 249.04 40.4756 249 37.0196L247 37.0429ZM249.681 45.8411C251.501 47.9486 254.123 48.9375 257.375 48.9375V46.9375C254.544 46.9375 252.541 46.093 251.194 44.5339L249.681 45.8411ZM257.375 48.9375C260.761 48.9375 263.614 48.1388 265.851 46.4553L264.649 44.8572C262.844 46.2154 260.448 46.9375 257.375 46.9375V48.9375ZM265.851 46.4553C268.108 44.757 269.499 42.2867 270.077 39.1501L268.11 38.7874C267.605 41.5258 266.434 43.5138 264.649 44.8572L265.851 46.4553ZM270.094 38.9688V15.1875H268.094V38.9688H270.094ZM269.094 16.1875H270.812V14.1875H269.094V16.1875ZM269.812 15.1875V49H271.812V15.1875H269.812ZM270.812 48H269.094V50H270.812V48ZM291.844 32.3438L291.636 33.3218L291.637 33.3221L291.844 32.3438ZM283.062 28.9062L282.41 29.6642L282.416 29.6689L283.062 28.9062ZM283.719 16.9688L283.112 16.1735L283.109 16.1764L283.719 16.9688ZM300.688 17.1875L300.066 17.9713L300.071 17.9748L300.688 17.1875ZM304 24.2188V25.2188H305V24.2188H304ZM302.281 24.2188H301.281V25.2188H302.281V24.2188ZM284.875 18.1875L284.277 17.3863L284.875 18.1875ZM283.25 26.625L282.445 27.2189L282.452 27.2281L283.25 26.625ZM286.406 28.9688L285.969 29.8683L285.98 29.8733L286.406 28.9688ZM302.938 36.375L302.081 36.8917L302.085 36.8983L302.938 36.375ZM282.969 47.0625L282.37 47.8634L282.378 47.8694L282.969 47.0625ZM279.5 40.4062V39.4062H278.5V40.4062H279.5ZM281.188 40.4062L282.185 40.3362L282.12 39.4062H281.188V40.4062ZM284.312 45.9688L283.741 46.7897L283.752 46.7967L284.312 45.9688ZM299.5 45.8438L300.097 46.6459L300.099 46.6448L299.5 45.8438ZM303.344 40.7188C303.344 38.3321 302.305 36.331 300.342 34.7651C298.419 33.231 295.621 32.1199 292.05 31.3654L291.637 33.3221C295.066 34.0467 297.519 35.0711 299.095 36.3287C300.632 37.5545 301.344 39.0012 301.344 40.7188H303.344ZM292.052 31.3657C287.875 30.4765 285.156 29.3706 283.709 28.1436L282.416 29.6689C284.261 31.2336 287.396 32.4194 291.636 33.3218L292.052 31.3657ZM283.715 28.1483C282.32 26.948 281.594 25.3038 281.594 23.0938H279.594C279.594 25.8003 280.513 28.0312 282.41 29.6642L283.715 28.1483ZM281.594 23.0938C281.594 20.9461 282.474 19.1892 284.329 17.7611L283.109 16.1764C280.797 17.9566 279.594 20.2831 279.594 23.0938H281.594ZM284.325 17.764C286.213 16.3246 288.712 15.5625 291.906 15.5625V13.5625C288.392 13.5625 285.433 14.4045 283.112 16.1735L284.325 17.764ZM291.906 15.5625C295.394 15.5625 298.081 16.3979 300.066 17.9712L301.309 16.4038C298.877 14.4771 295.711 13.5625 291.906 13.5625V15.5625ZM300.071 17.9748C302.022 19.5028 303 21.5484 303 24.2188H305C305 20.9725 303.769 18.3306 301.304 16.4002L300.071 17.9748ZM304 23.2188H302.281V25.2188H304V23.2188ZM303.281 24.2188C303.281 21.6166 302.162 19.4415 300.028 17.7479L298.785 19.3146C300.484 20.6626 301.281 22.2793 301.281 24.2188H303.281ZM300.028 17.7479C297.893 16.0536 295.155 15.25 291.906 15.25V17.25C294.824 17.25 297.087 17.9672 298.785 19.3146L300.028 17.7479ZM291.906 15.25C288.811 15.25 286.232 15.9254 284.277 17.3863L285.473 18.9887C286.976 17.8663 289.085 17.25 291.906 17.25V15.25ZM284.277 17.3863C282.328 18.842 281.281 20.7391 281.281 23.0312H283.281C283.281 21.4484 283.964 20.1163 285.473 18.9887L284.277 17.3863ZM281.281 23.0312C281.281 24.6829 281.631 26.1153 282.445 27.2189L284.055 26.0311C283.577 25.3847 283.281 24.4213 283.281 23.0312H281.281ZM282.452 27.2281C283.23 28.2563 284.436 29.1233 285.969 29.8683L286.843 28.0692C285.46 27.3975 284.562 26.702 284.048 26.0219L282.452 27.2281ZM285.98 29.8733C287.534 30.6058 289.739 31.2915 292.556 31.943L293.007 29.9945C290.24 29.3544 288.195 28.7067 286.833 28.0642L285.98 29.8733ZM292.556 31.943C295.303 32.5785 297.416 33.3142 298.932 34.1305L299.88 32.3695C298.146 31.4358 295.843 30.6506 293.007 29.9945L292.556 31.943ZM298.932 34.1305C300.447 34.9461 301.469 35.8769 302.081 36.8917L303.794 35.8583C302.948 34.4565 301.616 33.3039 299.88 32.3695L298.932 34.1305ZM302.085 36.8983C302.697 37.8944 303.031 39.1612 303.031 40.75H305.031C305.031 38.8804 304.636 37.2306 303.79 35.8517L302.085 36.8983ZM303.031 40.75C303.031 43.0922 302.094 44.9435 300.154 46.3848L301.346 47.9902C303.781 46.1815 305.031 43.7411 305.031 40.75H303.031ZM300.154 46.3848C298.184 47.8479 295.548 48.625 292.156 48.625V50.625C295.848 50.625 298.941 49.7771 301.346 47.9902L300.154 46.3848ZM292.156 48.625C288.511 48.625 285.675 47.8045 283.559 46.2556L282.378 47.8694C284.929 49.7372 288.218 50.625 292.156 50.625V48.625ZM283.568 46.2616C281.488 44.7067 280.5 42.7758 280.5 40.4062H278.5C278.5 43.4534 279.824 45.96 282.37 47.8634L283.568 46.2616ZM279.5 41.4062H281.188V39.4062H279.5V41.4062ZM280.19 40.4763C280.377 43.1463 281.571 45.2795 283.741 46.7897L284.884 45.1478C283.221 43.9913 282.331 42.4162 282.185 40.3362L280.19 40.4763ZM283.752 46.7967C285.909 48.2584 288.743 48.9375 292.156 48.9375V46.9375C288.986 46.9375 286.591 46.3041 284.873 45.1408L283.752 46.7967ZM292.156 48.9375C295.329 48.9375 298.005 48.2033 300.097 46.6459L298.903 45.0416C297.245 46.2758 295.025 46.9375 292.156 46.9375V48.9375ZM300.099 46.6448C302.195 45.0785 303.344 43.0942 303.344 40.7188H301.344C301.344 42.3433 300.597 43.7757 298.901 45.0427L300.099 46.6448Z" fill="black"/>
<defs>
<filter id="filter0_i" x="0" y="0" width="305.031" height="54.625" filterUnits="userSpaceOnUse" color-interpolation-filters="sRGB">
<feFlood flood-opacity="0" result="BackgroundImageFix"/>
<feBlend mode="normal" in="SourceGraphic" in2="BackgroundImageFix" result="shape"/>
<feColorMatrix in="SourceAlpha" type="matrix" values="0 0 0 0 0 0 0 0 0 0 0 0 0 0 0 0 0 0 127 0" result="hardAlpha"/>
<feOffset dy="4"/>
<feGaussianBlur stdDeviation="2"/>
<feComposite in2="hardAlpha" operator="arithmetic" k2="-1" k3="1"/>
<feColorMatrix type="matrix" values="0 0 0 0 0 0 0 0 0 0 0 0 0 0 0 0 0 0 0.25 0"/>
<feBlend mode="normal" in2="shape" result="effect1_innerShadow"/>
</filter>
</defs>
</svg>
